<svg width="79" height="82" viewBox="0 0 79 82" fill="none" xmlns="http://www.w3.org/2000/svg">
<g clip-path="url(#clip0_54_487)">
<g opacity="0.3">
<path d="M34.2231 7.49154C26.2301 24.4245 25.7891 45.5326 29.1501 66.0916C30.0091 71.3406 31.8311 77.5916 36.5781 79.9436C38.6301 80.9079 40.9651 81.0834 43.1381 80.4366C50.8181 78.3506 54.3381 69.7366 56.0161 61.4726C59.5941 43.8826 57.7811 23.0646 46.4521 6.53256C44.7931 4.11256 42.7091 1.64155 40.1031 0.932554C36.6831 0.00255394 33.8921 2.42455 31.6391 4.70355" stroke="#05AFF2" stroke-width="1.5" stroke-miterlimit="10"/>
<path d="M5.51803 36.4655C21.581 52.9955 43.9481 62.1205 63.8791 60.2735C67.3241 59.9535 70.765 59.3005 73.538 57.4815C75.0033 56.5544 76.2041 55.2641 77.0237 53.7361C77.8434 52.2081 78.2541 50.4941 78.216 48.7605C78.016 43.0045 73.035 37.8265 68.064 34.4795C56.908 26.9665 44.064 24.3375 31.84 23.4865C23.34 22.8955 14.7311 23.1125 7.39407 26.3235C5.30993 27.1046 3.48439 28.4505 2.12203 30.2105C1.43325 31.2112 1.00267 32.3666 0.868675 33.574C0.734677 34.7814 0.901414 36.0032 1.35403 37.1305" stroke="#05AFF2" stroke-width="1.5" stroke-miterlimit="10"/>
<path d="M7.60595 62.1795C18.1609 47.6285 29.02 33.2985 41.284 20.3985C47.344 14.0255 53.819 7.95652 61.5979 3.89852C64.7229 2.26652 68.976 1.15753 72.077 3.99053C75.238 6.87753 74.918 11.7905 73.716 15.3905C71.781 21.1715 68.506 26.1335 65.143 30.9345C53.384 47.7175 39.793 63.5705 21.569 72.3775C17.644 74.2775 12.613 75.6895 8.50597 72.6095C7.66084 72.0332 7.01769 71.2064 6.66698 70.2455C6.42667 69.0716 6.64111 67.8503 7.26696 66.8285C9.09645 63.0023 11.2839 59.3577 13.8 55.9435" stroke="#05AFF2" stroke-width="1.5" stroke-miterlimit="10"/>
<path d="M39.644 38.1813C38.5 39.1563 38.493 41.3093 39.603 42.7413C40.085 43.4188 40.7904 43.9046 41.5953 44.1131C42.4001 44.3217 43.2528 44.2396 44.0031 43.8813C44.6408 43.3659 45.076 42.6417 45.2317 41.8367C45.3874 41.0316 45.2537 40.1974 44.8541 39.4813C44.5625 38.8273 44.061 38.2892 43.429 37.9523C43.0122 37.7743 42.5592 37.6975 42.1071 37.7283C41.2532 37.7459 40.4159 37.968 39.6655 38.3758C38.915 38.7836 38.2733 39.3654 37.7941 40.0723" stroke="#05AFF2" stroke-width="1.5" stroke-miterlimit="10"/>
<path d="M1.39597 36.5777C1.25337 37.5161 1.44726 38.4748 1.9434 39.2841C2.43953 40.0933 3.20593 40.701 4.10697 40.9997C4.52082 41.0967 4.9521 41.0913 5.36338 40.9839C5.77466 40.8765 6.15348 40.6703 6.46702 40.3833C6.78055 40.0963 7.01934 39.737 7.16257 39.3368C7.30581 38.9366 7.34919 38.5075 7.28898 38.0867C7.07798 36.2227 5.08298 34.4997 3.40098 34.7297C1.71898 34.9597 0.800942 37.0757 1.61594 38.8597" stroke="#05AFF2" stroke-width="1.5" stroke-miterlimit="10"/>
<path d="M18.706 71.7324C18.5269 72.3749 18.5084 73.0516 18.6523 73.7029C18.7961 74.3542 19.098 74.9601 19.5311 75.4674C19.9355 75.9811 20.4655 76.3818 21.0701 76.6308C21.6746 76.8797 22.3332 76.9685 22.982 76.8884C23.5346 76.7841 24.0317 76.4859 24.3839 76.0475C24.7361 75.6092 24.9202 75.0595 24.903 74.4974C24.8713 73.8687 24.6308 73.2686 24.2197 72.7919C23.8085 72.3152 23.2503 71.9892 22.633 71.8654C22.3498 71.8719 22.0733 71.9535 21.8318 72.1018C21.5904 72.2502 21.3927 72.46 21.259 72.7098C21.1252 72.9596 21.0602 73.2404 21.0706 73.5236C21.081 73.8067 21.1664 74.0821 21.318 74.3214" stroke="#05AFF2" stroke-width="1.5" stroke-miterlimit="10"/>
<path d="M70.284 19.2637C68.729 21.0327 69.893 24.2847 71.349 26.6947C72.039 27.8377 72.997 29.0877 74.183 29.1947C74.6523 29.2013 75.1089 29.0421 75.4722 28.745C75.8356 28.4479 76.0823 28.032 76.169 27.5707C76.3618 26.5649 76.3588 25.5313 76.16 24.5267C76.1327 23.1683 75.6139 21.8659 74.7 20.8607C74.3031 20.53 73.8254 20.3106 73.3159 20.225C72.8063 20.1394 72.2832 20.1908 71.8 20.3737C70.9357 20.7651 70.1652 21.3369 69.54 22.0507" stroke="#05AFF2" stroke-width="1.5" stroke-miterlimit="10"/>
<path d="M33.097 3.35158C32.6105 3.41211 32.1582 3.6334 31.8118 3.98034C31.4654 4.32727 31.2448 4.77999 31.185 5.26659C31.042 6.34917 31.1695 7.45029 31.556 8.47158C32.134 10.2716 33.602 12.3786 35.245 12.1406C36.321 11.9846 36.881 10.8406 37.06 9.7116C37.297 8.00923 37.0322 6.2747 36.298 4.7206C36.0507 4.02954 35.5453 3.46113 34.888 3.1346C34.6672 3.06986 34.4353 3.05161 34.2071 3.08104C33.9789 3.11048 33.7592 3.18695 33.562 3.30559C31.481 4.40559 31.125 7.3356 30.962 9.9316" stroke="#05AFF2" stroke-width="1.5" stroke-miterlimit="10"/>
<path d="M49.3671 69.2977C49.3179 71.0508 49.8163 72.7757 50.7929 74.2324C51.7695 75.6891 53.1757 76.8053 54.8161 77.4257C56.4681 77.9507 58.4051 77.6077 58.9531 76.0707C59.1678 75.2722 59.1705 74.4316 58.9611 73.6317C58.7018 72.0533 58.0689 70.5598 57.1151 69.2757C56.6685 68.6494 56.0808 68.137 55.3994 67.78C54.7181 67.423 53.9622 67.2313 53.1931 67.2207C52.4882 67.3268 51.8361 67.657 51.3333 68.1623C50.8305 68.6676 50.5037 69.3213 50.4011 70.0267C50.1651 71.6054 50.3811 73.2187 51.0241 74.6797" stroke="#05AFF2" stroke-width="1.5" stroke-miterlimit="10"/>
</g>
</g>
<defs>
<clipPath id="clip0_54_487">
<rect width="78.973" height="81.576" fill="white"/>
</clipPath>
</defs>
</svg>
