<svg width="73" height="63" viewBox="0 0 73 63" fill="none" xmlns="http://www.w3.org/2000/svg">
<g clip-path="url(#clip0_54_498)">
<g opacity="0.3">
<path d="M10.9865 20.9951L50.226 49.9858" stroke="#0D7AD9" stroke-width="1.5" stroke-miterlimit="10"/>
<path d="M18.0851 11.1592C30.9144 20.1833 43.743 29.2076 56.5708 38.2322" stroke="#0D7AD9" stroke-width="1.5" stroke-miterlimit="10"/>
<path d="M8.33556 23.5469C8.16448 24.0987 8.21497 24.6955 8.4763 25.2107C12.4033 20.5642 16.0714 15.7049 19.464 10.6549C20.2824 9.53906 20.9447 8.31675 21.4326 7.02181C19.9416 6.27369 18.4514 5.52559 16.9623 4.77747L4.31214 20.3791C4.05479 20.6311 3.8954 20.9665 3.86242 21.3252C3.90474 21.6334 4.04768 21.919 4.26902 22.1376C5.53451 23.6259 7.22612 24.6901 9.11553 25.1867" stroke="#0D7AD9" stroke-width="1.5" stroke-miterlimit="10"/>
<path d="M5.62101 17.5359C4.56978 16.6959 3.51786 15.8565 2.46521 15.0179C3.55681 14.5114 4.42246 13.6191 4.89552 12.5126C6.51568 9.76095 8.33895 7.13406 10.3501 4.65382C11.6423 5.71872 12.9344 6.78363 14.2265 7.84853" stroke="#0D7AD9" stroke-width="1.5" stroke-miterlimit="10"/>
<path d="M19.8204 5.06684L20.6244 3.28991C20.6336 3.16672 20.6796 3.04911 20.7563 2.95229C20.8331 2.85547 20.937 2.78387 21.0549 2.74673C21.1727 2.70959 21.2989 2.7086 21.4173 2.74391C21.5357 2.77922 21.6408 2.84922 21.719 2.94484C30.0586 9.0104 37.5221 16.1812 44.9552 23.3272C44.7894 24.1779 44.3015 24.9318 43.5933 25.4315L37.3609 20.6331C37.6501 20.4059 37.8844 20.1165 38.0464 19.7863C38.2084 19.4562 38.2938 19.0938 38.2964 18.726" stroke="#0D7AD9" stroke-width="1.5" stroke-miterlimit="10"/>
<path d="M50.5754 50.4734C52.2707 50.3174 53.9038 49.7567 55.3374 48.8384C56.771 47.9201 57.9632 46.671 58.8139 45.1963C59.4962 43.9892 59.9141 42.4259 59.173 41.2549C58.3309 39.9277 56.3757 39.6823 55.5032 38.3741" stroke="#0D7AD9" stroke-width="1.5" stroke-miterlimit="10"/>
<path d="M51.6041 51.4921C56.8737 53.4125 62.3986 54.542 67.9991 54.8437C68.2238 54.878 68.4536 54.845 68.6596 54.749C69.1913 54.4322 68.9077 53.6127 68.562 53.0958C65.5294 48.5293 62.313 44.0924 58.9128 39.7852" stroke="#0D7AD9" stroke-width="1.5" stroke-miterlimit="10"/>
<path d="M20.1358 35.6709C24.3756 38.3843 28.6154 41.0977 32.8552 43.8111" stroke="#0D7AD9" stroke-width="1.5" stroke-miterlimit="10"/>
<path d="M42.7914 50.6631C43.9209 51.7761 45.2065 52.7186 46.6077 53.4611" stroke="#0D7AD9" stroke-width="1.5" stroke-miterlimit="10"/>
<path d="M14.8268 19.0124L18.9458 24.4366" stroke="#0D7AD9" stroke-width="1.5" stroke-miterlimit="10"/>
<path d="M16.8463 13.8895C20.0219 19.8494 23.561 25.6083 27.4437 31.1337" stroke="#0D7AD9" stroke-width="1.5" stroke-miterlimit="10"/>
<path d="M20.7566 14.8266C24.8874 19.7873 28.5499 25.12 31.6969 30.7563" stroke="#0D7AD9" stroke-width="1.5" stroke-miterlimit="10"/>
<path d="M28.4789 18.3774L30.8647 21.1959" stroke="#0D7AD9" stroke-width="1.5" stroke-miterlimit="10"/>
</g>
</g>
<defs>
<clipPath id="clip0_54_498">
<rect width="72.343" height="62.676" fill="white"/>
</clipPath>
</defs>
</svg>
