<svg width="74" height="185" viewBox="0 0 74 185" fill="none" xmlns="http://www.w3.org/2000/svg">
<g clip-path="url(#clip0_54_514)">
<g opacity="0.3">
<path d="M65.1851 14.7002L50.4441 18.8822" stroke="#DCA500" stroke-width="1.5" stroke-miterlimit="10"/>
<path d="M50.0131 18.7516L15.313 6.43359L42.937 23.8176" stroke="#DCA500" stroke-width="1.5" stroke-miterlimit="10"/>
<path d="M65.6031 13.1443C45.1657 8.61094 24.6454 4.47561 4.04205 0.738281" stroke="#DCA500" stroke-width="1.5" stroke-miterlimit="10"/>
<path d="M43 24.3115C37.3247 24.5842 31.6644 25.0545 26.019 25.7225" stroke="#DCA500" stroke-width="1.5" stroke-miterlimit="10"/>
<path d="M2.78906 0.951172C10.6827 10.1363 19.0965 18.8613 27.9891 27.0832" stroke="#DCA500" stroke-width="1.5" stroke-miterlimit="10"/>
<path d="M51.6191 19.8457C51.5341 25.0644 51.7635 30.2835 52.3061 35.4747" stroke="#DCA500" stroke-width="1.5" stroke-miterlimit="10"/>
<path d="M43.662 23.8281L51.739 35.7611" stroke="#DCA500" stroke-width="1.5" stroke-miterlimit="10"/>
<path d="M51.4091 35.7363C46.5604 31.8537 41.5478 28.187 36.3711 24.7363" stroke="#DCA500" stroke-width="1.5" stroke-miterlimit="10"/>
<path d="M53.026 41.0605C56.1982 42.4353 59.0386 44.4744 61.3557 47.0403C63.6729 49.6062 65.4128 52.6392 66.458 55.9347C67.5033 59.2301 67.8297 62.7115 67.4152 66.1438C67.0006 69.5762 65.8548 72.8797 64.055 75.8315C60.021 82.4485 53.076 86.7315 46.03 89.9555C38.23 93.5275 29.49 96.1435 21.117 94.2615C12.744 92.3795 5.20198 84.7095 6.05498 76.1685C6.12205 74.9614 6.43195 73.7802 6.96616 72.6957C7.50036 71.6111 8.24788 70.6455 9.16398 69.8565C12.455 67.3295 17.188 68.4565 21.033 70.0185C37.352 76.6455 50.945 89.0185 60.881 103.56C65.146 109.804 68.823 116.544 70.788 123.846C73.7611 134.894 72.6651 146.642 67.6998 156.95C62.7345 167.258 54.2305 175.438 43.738 180C35.548 183.56 25.922 184.7 17.708 181.191C9.49398 177.682 3.32298 168.819 4.66398 159.991" stroke="#DCA500" stroke-width="1.5" stroke-miterlimit="10" stroke-linecap="round" stroke-dasharray="9.74 9.74"/>
<path d="M0.621094 3.05469C2.63246 5.97509 4.82195 8.76871 7.17709 11.4197" stroke="#DCA500" stroke-width="1.5" stroke-miterlimit="10"/>
<path d="M10.113 16.6191L14.635 22.2711" stroke="#DCA500" stroke-width="1.5" stroke-miterlimit="10"/>
<path d="M26.448 9.7666C27.0282 11.3829 27.8079 12.9205 28.769 14.3436" stroke="#DCA500" stroke-width="1.5" stroke-miterlimit="10"/>
<path d="M30.515 12.3555C31.1853 14.9022 32.0653 17.389 33.146 19.7905" stroke="#DCA500" stroke-width="1.5" stroke-miterlimit="10"/>
<path d="M33.2151 13.1289C34.3778 15.8936 35.5411 18.6579 36.7051 21.4219" stroke="#DCA500" stroke-width="1.5" stroke-miterlimit="10"/>
<path d="M37.998 15.7607C39.1389 17.8375 40.1457 19.9853 41.012 22.1908" stroke="#DCA500" stroke-width="1.5" stroke-miterlimit="10"/>
<path d="M41.23 16.5586C42.31 20.6799 43.5047 24.7689 44.814 28.8256" stroke="#DCA500" stroke-width="1.5" stroke-miterlimit="10"/>
<path d="M43.6791 17.5742C43.8361 17.3742 44.1201 17.6742 44.1911 17.9152C45.3091 21.7426 46.3854 25.5822 47.4201 29.4342" stroke="#DCA500" stroke-width="1.5" stroke-miterlimit="10"/>
<path d="M47.3451 18.5889C47.9898 22.236 49.0407 25.7995 50.4781 29.2129" stroke="#DCA500" stroke-width="1.5" stroke-miterlimit="10"/>
</g>
</g>
<defs>
<clipPath id="clip0_54_514">
<rect width="73.265" height="184.185" fill="white"/>
</clipPath>
</defs>
</svg>
