<svg width="278" height="225" viewBox="0 0 278 225" fill="none" xmlns="http://www.w3.org/2000/svg">
<g clip-path="url(#clip0_54_535)">
<g opacity="0.3">
<path d="M200.159 81.2627L219.059 85.0077" stroke="#0D7AD9" stroke-width="1.5" stroke-miterlimit="10"/>
<path d="M219.586 84.7979L261.826 65.8379L228.974 90.4289" stroke="#0D7AD9" stroke-width="1.5" stroke-miterlimit="10"/>
<path d="M199.476 79.3527C224.631 71.5961 249.931 64.3294 275.376 57.5527" stroke="#0D7AD9" stroke-width="1.5" stroke-miterlimit="10"/>
<path d="M228.939 91.0526C236.079 90.8186 243.221 90.8336 250.366 91.0976" stroke="#0D7AD9" stroke-width="1.5" stroke-miterlimit="10"/>
<path d="M276.967 57.6953C268.006 70.0085 258.347 81.7982 248.038 93.0063" stroke="#0D7AD9" stroke-width="1.5" stroke-miterlimit="10"/>
<path d="M217.685 86.333C218.321 92.8649 218.563 99.4291 218.41 105.99" stroke="#0D7AD9" stroke-width="1.5" stroke-miterlimit="10"/>
<path d="M228.062 90.5176C225.09 95.7756 222.118 101.034 219.145 106.293" stroke="#0D7AD9" stroke-width="1.5" stroke-miterlimit="10"/>
<path d="M219.559 106.229C225.243 100.871 231.154 95.7682 237.291 90.9209" stroke="#0D7AD9" stroke-width="1.5" stroke-miterlimit="10"/>
<path d="M208.918 108.072C199.151 122.097 200.992 140.741 198.893 157.703C195.565 184.603 179.183 211.257 153.581 220.15C133.131 227.25 109.489 221.884 92.308 208.713C75.127 195.542 64.107 175.381 59.399 154.253C57.399 145.267 56.458 135.933 57.889 126.838C61.147 106.131 76.539 88.8637 94.799 78.5717C98.872 76.2717 103.256 74.2267 107.927 74.0307C112.598 73.8347 117.622 75.8797 119.776 80.0307C122.263 84.8187 120.169 90.9977 116.205 94.6587C112.241 98.3197 106.846 99.9587 101.575 101.113C73.102 107.326 40.963 101.197 20.234 80.7127C-0.49501 60.2287 -6.29601 24.5157 10.983 1.05273" stroke="#0D7AD9" stroke-width="1.5" stroke-miterlimit="10" stroke-linecap="round" stroke-dasharray="9.74 9.74"/>
</g>
</g>
<defs>
<clipPath id="clip0_54_535">
<rect width="277.573" height="224.084" fill="white"/>
</clipPath>
</defs>
</svg>
