<svg width="59" height="69" viewBox="0 0 59 69" fill="none" xmlns="http://www.w3.org/2000/svg">
<g clip-path="url(#clip0_54_605)">
<path d="M1.02197 23.2747L27.63 67.1338C27.83 67.4568 28.067 67.8118 28.439 67.8758C28.789 67.8865 29.1296 67.7611 29.389 67.5258C38.5003 61.1118 47.5833 54.6584 56.638 48.1657C56.9512 48.0485 57.2281 47.8509 57.4408 47.5927C57.6536 47.3346 57.7947 47.0251 57.85 46.6952C57.9053 46.3653 57.8729 46.0267 57.756 45.7133C57.6391 45.3999 57.4418 45.1228 57.184 44.9098C46.3746 29.6902 34.7886 15.0375 22.472 1.00977L5.28197 13.6227C4.36346 14.1927 3.59253 14.9715 3.03197 15.8958C2.6807 16.7334 2.49952 17.6325 2.49897 18.5407L2.05497 25.2148" stroke="#05AFF2" stroke-width="1.5" stroke-miterlimit="10"/>
<path d="M3.22997 15.3047C6.89194 17.9384 10.2118 21.0178 13.113 24.4717C8.77754 24.1163 4.41424 24.3291 0.133972 25.1047" stroke="#05AFF2" stroke-width="1.5" stroke-miterlimit="10"/>
<path d="M14.448 17.6667L21.564 13.3857" stroke="#05AFF2" stroke-width="1.5" stroke-miterlimit="10"/>
<path d="M14.993 30.4434L28.553 21.1904" stroke="#05AFF2" stroke-width="1.5" stroke-miterlimit="10"/>
<path d="M21.0909 31.832C23.7886 30.3821 26.2778 28.574 28.4909 26.457" stroke="#05AFF2" stroke-width="1.5" stroke-miterlimit="10"/>
<path d="M24.288 44.5627C28.8779 40.5502 33.9545 37.131 39.398 34.3857" stroke="#05AFF2" stroke-width="1.5" stroke-miterlimit="10"/>
<path d="M31.476 44.7132L39.1819 38.7842" stroke="#05AFF2" stroke-width="1.5" stroke-miterlimit="10"/>
<path d="M33.33 48.0801L41.152 42.3691" stroke="#05AFF2" stroke-width="1.5" stroke-miterlimit="10"/>
</g>
<defs>
<clipPath id="clip0_54_605">
<rect width="58.614" height="68.634" fill="white"/>
</clipPath>
</defs>
</svg>
