<svg width="26" height="23" viewBox="0 0 26 23" fill="none" xmlns="http://www.w3.org/2000/svg">
<g clip-path="url(#clip0_59_702)">
<path d="M23.528 2.86833e-06H1.569C1.15288 2.86833e-06 0.753794 0.165308 0.459549 0.459552C0.165305 0.753797 0 1.15288 0 1.569V17.254C0 17.6701 0.165305 18.0692 0.459549 18.3635C0.753794 18.6577 1.15288 18.823 1.569 18.823H13.333L13.78 18.274L14.509 17.38L14.438 17.255H1.569V1.569H23.529V8.282C24.1255 8.66709 24.656 9.14591 25.1 9.7V1.569C25.1 1.36271 25.0593 1.15843 24.9803 0.967879C24.9012 0.777323 24.7854 0.604225 24.6394 0.45849C24.4934 0.312756 24.3201 0.197247 24.1294 0.118574C23.9386 0.0399007 23.7343 -0.00039158 23.528 2.86833e-06Z" fill="#0D7AD9"/>
<path d="M3.92102 4.70605H17.254V5.96105H3.92102V4.70605Z" fill="#0D7AD9"/>
<path d="M3.92102 7.84277H12.548V9.09777H3.92102V7.84277Z" fill="#0D7AD9"/>
<path d="M3.92102 13.333H11.764V14.588H3.92102V13.333Z" fill="#0D7AD9"/>
<path d="M19.9681 8.8068C18.9644 8.7988 17.9817 9.09375 17.1484 9.65311C16.3151 10.2125 15.6699 11.0102 15.2971 11.9421C14.9243 12.8739 14.8414 13.8965 15.059 14.8763C15.2767 15.8561 15.7848 16.7474 16.5171 17.4338L14.9911 19.2928L15.6971 22.1238L18.5671 18.6238C19.4756 18.8924 20.4425 18.8924 21.3511 18.6238L24.2211 22.1238L24.9271 19.2928L23.4111 17.4338C24.1433 16.7474 24.6515 15.8561 24.8691 14.8763C25.0867 13.8965 25.0038 12.8739 24.631 11.9421C24.2582 11.0102 23.613 10.2125 22.7797 9.65311C21.9464 9.09375 20.9637 8.7988 19.9601 8.8068H19.9681ZM19.9681 17.1828C19.3016 17.1735 18.6528 16.9674 18.1032 16.5905C17.5536 16.2135 17.1277 15.6824 16.879 15.064C16.6304 14.4457 16.5702 13.7676 16.7058 13.1151C16.8415 12.4625 17.1671 11.8647 17.6416 11.3967C18.1161 10.9286 18.7184 10.6114 19.3727 10.4847C20.0271 10.3581 20.7043 10.4277 21.3191 10.6848C21.934 10.942 22.4592 11.3752 22.8285 11.9299C23.1979 12.4847 23.395 13.1363 23.3951 13.8028C23.3951 14.2506 23.3061 14.694 23.1333 15.1072C22.9606 15.5204 22.7074 15.8951 22.3885 16.2096C22.0697 16.5241 21.6915 16.7721 21.276 16.9391C20.8604 17.1062 20.4159 17.189 19.9681 17.1828Z" fill="#0D7AD9"/>
</g>
<defs>
<clipPath id="clip0_59_702">
<rect width="25.097" height="22.125" fill="white"/>
</clipPath>
</defs>
</svg>
