<svg width="279" height="148" viewBox="0 0 279 148" fill="none" xmlns="http://www.w3.org/2000/svg">
<g clip-path="url(#clip0_54_475)">
<path d="M78.205 56.373L59.305 60.118" stroke="#F2B705" stroke-width="2" stroke-miterlimit="10" stroke-linecap="round"/>
<path d="M58.778 59.9082L16.538 40.9482L49.39 65.5392" stroke="#F2B705" stroke-width="2" stroke-miterlimit="10" stroke-linecap="round"/>
<path d="M78.888 54.4631C53.7334 46.7064 28.4334 39.4398 2.98804 32.6631" stroke="#F2B705" stroke-width="2" stroke-miterlimit="10" stroke-linecap="round"/>
<path d="M49.425 66.163C42.285 65.929 35.1427 65.944 27.998 66.208" stroke="#F2B705" stroke-width="2" stroke-miterlimit="10" stroke-linecap="round"/>
<path d="M1.39703 32.8057C10.3577 45.1189 20.0165 56.9085 30.326 68.1167" stroke="#F2B705" stroke-width="2" stroke-miterlimit="10" stroke-linecap="round"/>
<path d="M60.679 61.4434C60.0431 67.9752 59.801 74.5394 59.954 81.1004" stroke="#F2B705" stroke-width="2" stroke-miterlimit="10" stroke-linecap="round"/>
<path d="M50.302 65.6279C53.274 70.8859 56.2463 76.1443 59.219 81.4029" stroke="#F2B705" stroke-width="2" stroke-miterlimit="10" stroke-linecap="round"/>
<path d="M58.805 81.3392C53.121 75.9812 47.2103 70.8786 41.073 66.0312" stroke="#F2B705" stroke-width="2" stroke-miterlimit="10" stroke-linecap="round"/>
<path d="M69.441 71.095C79.208 80.227 77.367 92.366 79.466 103.41C82.794 120.923 99.176 138.279 124.778 144.07C145.228 148.694 168.87 145.199 186.051 136.623C203.232 128.047 214.251 114.923 218.959 101.162C220.959 95.311 221.9 89.234 220.469 83.312C217.212 69.831 201.82 58.588 183.562 51.887C179.378 50.1941 174.946 49.1956 170.441 48.931C165.771 48.803 160.746 50.131 158.592 52.836C156.105 55.953 158.199 59.977 162.163 62.36C166.127 64.743 171.522 65.813 176.793 66.56C205.266 70.605 237.405 66.615 258.134 53.277C278.863 39.939 284.66 16.691 267.381 1.41602" stroke="#F2B705" stroke-width="2" stroke-miterlimit="10" stroke-linecap="round" stroke-dasharray="9.74 9.74"/>
</g>
<defs>
<clipPath id="clip0_54_475">
<rect width="278.617" height="147.143" fill="white"/>
</clipPath>
</defs>
</svg>
