<svg width="27" height="13" viewBox="0 0 27 13" fill="none" xmlns="http://www.w3.org/2000/svg">
<g clip-path="url(#clip0_59_695)">
<path d="M8.89095 3.59907L11.4909 6.19907L11.4999 6.18807L13.3139 7.99907L13.3209 8.00607L15.9699 10.6551C16.8431 11.528 17.9555 12.1225 19.1665 12.3632C20.3775 12.604 21.6327 12.4803 22.7733 12.0077C23.914 11.5351 24.8889 10.735 25.5749 9.70834C26.2608 8.68172 26.6269 7.47476 26.6269 6.24007C26.6269 5.00539 26.2608 3.79843 25.5749 2.7718C24.8889 1.74518 23.914 0.944999 22.7733 0.472437C21.6327 -0.00012514 20.3775 -0.123845 19.1665 0.116921C17.9555 0.357686 16.8431 0.952125 15.9699 1.82507L15.0789 2.71607L16.8459 4.48107L17.7359 3.59107C18.26 3.06752 18.9274 2.71108 19.654 2.56681C20.3806 2.42254 21.1336 2.49692 21.8179 2.78054C22.5022 3.06416 23.087 3.5443 23.4985 4.16025C23.91 4.77621 24.1296 5.50033 24.1296 6.24107C24.1296 6.98182 23.91 7.70594 23.4985 8.32189C23.087 8.93785 22.5022 9.41798 21.8179 9.70161C21.1336 9.98523 20.3806 10.0596 19.654 9.91534C18.9274 9.77107 18.26 9.41463 17.7359 8.89107L15.1489 6.30407L15.1399 6.31107L10.6579 1.82907C9.78496 0.9557 8.67256 0.36084 7.46147 0.119731C6.25037 -0.121378 4.99497 0.00209379 3.85405 0.474531C2.71313 0.946969 1.73795 1.74715 1.05184 2.77386C0.365726 3.80058 -0.000488281 5.00771 -0.000488281 6.24257C-0.000488281 7.47744 0.365726 8.68457 1.05184 9.71128C1.73795 10.738 2.71313 11.5382 3.85405 12.0106C4.99497 12.4831 6.25037 12.6065 7.46147 12.3654C8.67256 12.1243 9.78496 11.5294 10.6579 10.6561L11.5479 9.76607L9.78195 7.99907L8.89095 8.88907C8.36693 9.41263 7.69945 9.76907 6.97289 9.91334C6.24632 10.0576 5.4933 9.98323 4.809 9.69961C4.1247 9.41598 3.53986 8.93585 3.12839 8.31989C2.71692 7.70394 2.4973 6.97982 2.4973 6.23907C2.4973 5.49833 2.71692 4.77421 3.12839 4.15825C3.53986 3.5423 4.1247 3.06216 4.809 2.77854C5.4933 2.49492 6.24632 2.42054 6.97289 2.56481C7.69945 2.70908 8.36693 3.06552 8.89095 3.58907V3.59907Z" fill="#0D7AD9"/>
</g>
<defs>
<clipPath id="clip0_59_695">
<rect width="26.628" height="12.486" fill="white"/>
</clipPath>
</defs>
</svg>
