<svg width="18" height="20" viewBox="0 0 18 20" fill="none" xmlns="http://www.w3.org/2000/svg">
<g clip-path="url(#clip0_60_713)">
<path d="M5.817 8.725H3.878V10.664H5.817V8.725ZM9.695 8.725H7.756V10.664H9.695V8.725ZM13.573 8.725H11.634V10.664H13.573V8.725ZM15.512 1.939H14.543V0H12.6V1.939H4.847V0H2.908V1.939H1.939C1.68487 1.93913 1.43328 1.98944 1.19864 2.08706C0.964013 2.18467 0.750969 2.32766 0.571739 2.50782C0.39251 2.68797 0.250625 2.90176 0.154227 3.13689C0.0578283 3.37202 0.00881541 3.62388 0.0100005 3.878L2.58155e-07 17.451C-0.000131184 17.7057 0.0499327 17.9579 0.14733 18.1932C0.244727 18.4285 0.387548 18.6423 0.567627 18.8224C0.747706 19.0025 0.961512 19.1453 1.19682 19.2427C1.43213 19.3401 1.68433 19.3901 1.939 19.39H15.512C16.0258 19.3884 16.518 19.1836 16.8813 18.8203C17.2446 18.457 17.4494 17.9648 17.451 17.451V3.878C17.4494 3.36423 17.2446 2.87196 16.8813 2.50867C16.518 2.14538 16.0258 1.94058 15.512 1.939ZM15.512 17.451H1.939V6.786H15.512V17.451Z" fill="#0D7AD9"/>
</g>
<defs>
<clipPath id="clip0_60_713">
<rect width="17.451" height="19.39" fill="white"/>
</clipPath>
</defs>
</svg>
