<svg width="21" height="21" viewBox="0 0 21 21" fill="none" xmlns="http://www.w3.org/2000/svg">
<g clip-path="url(#clip0_60_711)">
<path d="M20.893 2.09C20.8935 1.53727 20.6749 1.00687 20.285 0.615091C19.8951 0.223312 19.3657 0.0021175 18.813 0H2.09C1.53651 0.00262946 1.00643 0.223669 0.615052 0.615052C0.223669 1.00643 0.00262946 1.53651 0 2.09V14.632C0.00262946 15.1855 0.223669 15.7156 0.615052 16.1069C1.00643 16.4983 1.53651 16.7194 2.09 16.722H16.722L20.9 20.9L20.893 2.09ZM16.723 12.542H4.181V10.452H16.722L16.723 12.542ZM16.723 9.407H4.181V7.317H16.722L16.723 9.407ZM16.723 6.272H4.181V4.181H16.722L16.723 6.272Z" fill="#0D7AD9"/>
</g>
<defs>
<clipPath id="clip0_60_711">
<rect width="20.903" height="20.903" fill="white"/>
</clipPath>
</defs>
</svg>
