<svg width="21" height="21" viewBox="0 0 21 21" fill="none" xmlns="http://www.w3.org/2000/svg">
<g clip-path="url(#clip0_60_709)">
<path d="M10.4 1.38895e-05C8.34139 0.00238668 6.32971 0.614997 4.61921 1.76041C2.90871 2.90583 1.57618 4.53263 0.790031 6.4352C0.00388718 8.33777 -0.200574 10.4307 0.202491 12.4494C0.605556 14.4682 1.59805 16.3221 3.05453 17.7769C4.51101 19.2317 6.3661 20.2221 8.38531 20.6228C10.4045 21.0236 12.4972 20.8167 14.3989 20.0284C16.3005 19.24 17.9258 17.9056 19.0692 16.1938C20.2127 14.482 20.823 12.4696 20.823 10.411C20.8236 9.04263 20.5544 7.68754 20.0307 6.42334C19.507 5.15914 18.739 4.01065 17.7709 3.04361C16.8027 2.07657 15.6534 1.30998 14.3886 0.787715C13.1238 0.265453 11.7684 -0.00222177 10.4 1.38895e-05ZM10.41 18.74C8.76266 18.74 7.15233 18.2515 5.78264 17.3363C4.41294 16.4211 3.34539 15.1203 2.71499 13.5984C2.08459 12.0765 1.91964 10.4018 2.24102 8.78611C2.5624 7.17044 3.35566 5.68635 4.52049 4.52152C5.68532 3.35669 7.16941 2.56343 8.78507 2.24205C10.4007 1.92068 12.0754 2.08562 13.5974 2.71602C15.1193 3.34642 16.4201 4.41397 17.3353 5.78367C18.2505 7.15337 18.739 8.76369 18.739 10.411C18.7392 11.5048 18.524 12.5879 18.1056 13.5985C17.6872 14.609 17.0738 15.5273 16.3004 16.3007C15.527 17.0742 14.6089 17.6877 13.5984 18.1063C12.5878 18.5248 11.5048 18.7401 10.411 18.74H10.41ZM10.931 5.20501H9.36998V11.452L14.836 14.732L15.617 13.451L10.932 10.671L10.931 5.20501Z" fill="#0D7AD9"/>
</g>
<defs>
<clipPath id="clip0_60_709">
<rect width="20.823" height="20.823" fill="white"/>
</clipPath>
</defs>
</svg>
