<svg width="18" height="28" viewBox="0 0 18 28" fill="none" xmlns="http://www.w3.org/2000/svg">
<g clip-path="url(#clip0_59_698)">
<path d="M16.139 0H1.844C1.35518 0.000793319 0.886617 0.195326 0.540971 0.540971C0.195326 0.886617 0.000793319 1.35518 0 1.844V25.821C0.000793319 26.3098 0.195326 26.7784 0.540971 27.124C0.886617 27.4697 1.35518 27.6642 1.844 27.665H16.139C16.6278 27.6642 17.0964 27.4697 17.442 27.124C17.7877 26.7784 17.9822 26.3098 17.983 25.821V1.844C17.9822 1.35518 17.7877 0.886617 17.442 0.540971C17.0964 0.195326 16.6278 0.000793319 16.139 0ZM16.139 1.844V3.689H1.844V1.844H16.139ZM16.139 5.533V18.444H1.844V5.533H16.139ZM16.139 25.821H1.844V20.288H16.144V25.821H16.139Z" fill="#0D7AD9"/>
<path d="M8.06897 22.1318H9.91297V23.9758H8.06897V22.1318Z" fill="#0D7AD9"/>
</g>
<defs>
<clipPath id="clip0_59_698">
<rect width="17.983" height="27.666" fill="white"/>
</clipPath>
</defs>
</svg>
