<svg width="27" height="21" viewBox="0 0 27 21" fill="none" xmlns="http://www.w3.org/2000/svg">
<path d="M3.995 0V17.531C3.99946 17.6795 3.97406 17.8274 3.92031 17.9659C3.86656 18.1044 3.78555 18.2307 3.68208 18.3373C3.57861 18.444 3.45479 18.5287 3.31796 18.5866C3.18113 18.6445 3.03407 18.6743 2.8855 18.6743C2.73693 18.6743 2.58987 18.6445 2.45304 18.5866C2.31621 18.5287 2.19239 18.444 2.08892 18.3373C1.98545 18.2307 1.90444 18.1044 1.85069 17.9659C1.79694 17.8274 1.77154 17.6795 1.776 17.531V4.437H0V17.531C0.00105878 18.2957 0.305385 19.0288 0.846227 19.5695C1.38707 20.1101 2.12027 20.4142 2.885 20.415H23.745C24.5099 20.4142 25.2433 20.11 25.7841 19.5691C26.325 19.0283 26.6292 18.2949 26.63 17.53V0H3.995ZM24.855 17.531C24.8537 17.8246 24.7362 18.1058 24.5282 18.313C24.3202 18.5203 24.0386 18.6367 23.745 18.637H5.547C5.69383 18.2857 5.76929 17.9087 5.769 17.528V1.775H24.854L24.855 17.531Z" fill="#0D7AD9"/>
<path d="M15.534 3.55078H7.54504V12.4268H15.534V3.55078ZM13.759 10.6508H9.32004V5.32578H13.757L13.759 10.6508Z" fill="#0D7AD9"/>
<path d="M17.309 3.55078H23.079V5.32578H17.309V3.55078Z" fill="#0D7AD9"/>
<path d="M17.309 7.10059H23.079V8.87559H17.309V7.10059Z" fill="#0D7AD9"/>
<path d="M17.309 10.6523H23.079V12.4273H17.309V10.6523Z" fill="#0D7AD9"/>
</svg>
