<svg width="44" height="51" viewBox="0 0 44 51" fill="none" xmlns="http://www.w3.org/2000/svg">
<mask id="path-1-inside-1_64_779" fill="white">
<path d="M36.0023 50.0269L13.5583 50.2439C4.62835 50.3409 2.97235 47.3269 3.00035 41.3659C3.04835 30.8646 3.09935 20.3659 3.15335 9.86991C3.17835 3.33491 4.88435 0.710913 12.0013 0.210913C18.4038 -0.230757 24.8352 0.0217126 31.1833 0.963913C31.3543 0.988913 42.9184 11.9609 43.0383 12.0829C43.1129 12.1564 43.1556 12.2562 43.1573 12.3609C43.172 14.4189 43.1903 16.4772 43.2123 18.5359C43.2444 23.0926 43.3757 38.0959 43.4203 42.6639C43.4324 44.7819 43.3323 46.8019 42.0203 48.2469C40.5393 49.8529 38.1373 50.0079 36.0023 50.0269Z"/>
</mask>
<path d="M42.1153 12.2809L42.1687 12.4737L42.5055 12.3804L42.2545 12.1372L42.1153 12.2809ZM33.9153 13.2619L33.9085 13.4618L33.9089 13.4618L33.9153 13.2619ZM30.7773 9.57891L30.9771 9.58821L30.9771 9.58816L30.7773 9.57891ZM31.4513 2.21291L31.5905 2.06922L31.2817 1.77026L31.2518 2.19902L31.4513 2.21291ZM41.9153 13.1419L42.0568 13.2833L42.5775 12.7626L41.8649 12.9484L41.9153 13.1419ZM41.5153 13.5419L41.3736 13.683L41.515 13.8251L41.6568 13.6833L41.5153 13.5419ZM41.2793 13.3049L41.2319 13.1106L40.8874 13.1947L41.1376 13.446L41.2793 13.3049ZM40.2573 13.5239L40.3988 13.6653L40.8601 13.204L40.2195 13.3275L40.2573 13.5239ZM39.8633 13.9179L39.7219 14.0593L39.8633 14.2008L40.0048 14.0593L39.8633 13.9179ZM39.5883 13.6429L39.5526 13.4461L39.177 13.5144L39.4469 13.7843L39.5883 13.6429ZM39.5885 13.6429L39.5549 13.4457L39.5527 13.4461L39.5885 13.6429ZM38.4903 13.8159L38.6318 13.9573L39.0484 13.5407L38.4642 13.6176L38.4903 13.8159ZM38.1493 14.1569L38.0079 14.2983L38.1493 14.4398L38.2908 14.2983L38.1493 14.1569ZM37.8733 13.8809L37.8531 13.6819L37.4342 13.7246L37.7319 14.0223L37.8733 13.8809ZM36.5903 14.0009L36.7318 14.1423L36.7709 14.1032L36.7844 14.0494L36.5903 14.0009ZM36.2143 14.3769L36.0729 14.5183L36.2143 14.6598L36.3558 14.5183L36.2143 14.3769ZM35.8643 14.0269L35.8569 13.827L35.3986 13.844L35.7229 14.1683L35.8643 14.0269ZM36.5913 13.9969L36.7854 14.0454L36.8525 13.7769L36.5765 13.7975L36.5913 13.9969ZM34.8153 14.0619H35.0153V13.5787L34.6739 13.9206L34.8153 14.0619ZM34.4003 14.4769L34.2589 14.6183L34.4003 14.7598L34.5418 14.6183L34.4003 14.4769ZM33.9713 14.0479L33.978 13.848L33.4718 13.8312L33.8299 14.1893L33.9713 14.0479ZM34.8153 14.0629V14.2629H35.0153V14.0629H34.8153ZM33.2043 13.9969L33.3458 14.1383L33.6484 13.8357L33.2221 13.7977L33.2043 13.9969ZM32.7883 14.4129L32.6469 14.5543L32.7883 14.6958L32.9298 14.5543L32.7883 14.4129ZM32.1883 13.8129L32.2416 13.6201L31.5109 13.4183L32.0469 13.9543L32.1883 13.8129ZM3.78535 41.3699V41.5699H3.98448L3.98534 41.3708L3.78535 41.3699ZM3.93835 9.86991L4.13834 9.87099L4.13834 9.87068L3.93835 9.86991ZM12.0563 0.996913L12.0426 0.797383L12.0425 0.797395L12.0563 0.996913ZM30.7063 1.69691L30.906 1.70829L30.9165 1.52521L30.735 1.49897L30.7063 1.69691ZM29.9973 9.54791L30.1971 9.5572L30.1971 9.55718L29.9973 9.54791ZM31.2093 13.3609L31.3932 13.2821L31.3709 13.2303L31.3249 13.1977L31.2093 13.3609ZM31.2353 13.4239L31.0939 13.5653L31.094 13.5654L31.2353 13.4239ZM32.5103 14.6969L32.6518 14.8383L32.7933 14.6968L32.6517 14.5554L32.5103 14.6969ZM32.1903 15.0169L32.0489 14.8755L32.0358 14.8886L32.0253 14.904L32.1903 15.0169ZM32.4683 15.2949L32.5813 15.46L32.5966 15.4495L32.6098 15.4363L32.4683 15.2949ZM32.7883 14.9749L32.9298 14.8335L32.7883 14.6921L32.6469 14.8335L32.7883 14.9749ZM33.4223 15.6089L33.2809 15.7503L33.2941 15.7635L33.3094 15.774L33.4223 15.6089ZM33.7003 15.3309L33.8654 15.218L33.8549 15.2026L33.8418 15.1895L33.7003 15.3309ZM33.0663 14.6969L32.9249 14.5555L32.7835 14.6969L32.9249 14.8383L33.0663 14.6969ZM33.5663 14.1969L33.7078 14.0555L33.5663 13.9141L33.4249 14.0555L33.5663 14.1969ZM34.1253 14.7559L34.2668 14.8973L34.4082 14.7559L34.2668 14.6145L34.1253 14.7559ZM34.0653 14.8159L33.9239 14.6745L33.91 14.6884L33.899 14.7048L34.0653 14.8159ZM34.3433 15.0929L34.455 15.2588L34.4711 15.248L34.4848 15.2343L34.3433 15.0929ZM34.4033 15.0329L34.5448 14.8915L34.4033 14.7501L34.2619 14.8915L34.4033 15.0329ZM34.7623 15.3919L34.9283 15.2802L34.9174 15.2642L34.9038 15.2505L34.7623 15.3919ZM35.0393 15.1139L34.8979 15.2553L34.9119 15.2693L34.9283 15.2802L35.0393 15.1139ZM34.6803 14.7549L34.5389 14.6135L34.3975 14.7549L34.5389 14.8963L34.6803 14.7549ZM35.3593 14.0759L35.5008 13.9345L35.3593 13.7931L35.2179 13.9345L35.3593 14.0759ZM35.9383 14.6549L36.0798 14.7963L36.2212 14.6549L36.0798 14.5135L35.9383 14.6549ZM35.7383 14.8549L35.85 15.0208L35.8661 15.01L35.8798 14.9963L35.7383 14.8549ZM36.0163 15.1319L35.8749 14.9905L35.861 15.0044L35.85 15.0208L36.0163 15.1319ZM36.2163 14.9319L36.3578 14.7905L36.2163 14.6491L36.0749 14.7905L36.2163 14.9319ZM36.5863 15.3019L36.4449 15.4433L36.4581 15.4565L36.4734 15.467L36.5863 15.3019ZM36.8643 15.0239L37.0294 14.911L37.0189 14.8956L37.0058 14.8825L36.8643 15.0239ZM36.4943 14.6539L36.3529 14.5125L36.2115 14.6539L36.3529 14.7953L36.4943 14.6539ZM37.1943 13.9539V13.7539H37.1115L37.0529 13.8125L37.1943 13.9539ZM37.3733 13.9349L37.5148 13.7935L37.4478 13.7265L37.3534 13.7359L37.3733 13.9349ZM37.8733 14.4349L38.0148 14.5763L38.1562 14.4349L38.0148 14.2935L37.8733 14.4349ZM37.4943 14.8139L37.606 14.9798L37.6221 14.969L37.6358 14.9553L37.4943 14.8139ZM37.7723 15.0909L37.6309 14.9495L37.617 14.9634L37.606 14.9798L37.7723 15.0909ZM38.1513 14.7119L38.2928 14.5705L38.1513 14.4291L38.0099 14.5705L38.1513 14.7119ZM38.3773 14.9379L38.2359 15.0793L38.2499 15.0933L38.2663 15.1042L38.3773 14.9379ZM38.6543 14.6599L38.8203 14.5482L38.8095 14.5322L38.7958 14.5185L38.6543 14.6599ZM38.4283 14.4339L38.2869 14.2925L38.1455 14.4339L38.2869 14.5753L38.4283 14.4339ZM39.1283 13.7339L39.2698 13.5925L39.1283 13.4511L38.9869 13.5925L39.1283 13.7339ZM39.5873 14.1929L39.7288 14.3343L39.8702 14.1929L39.7288 14.0515L39.5873 14.1929ZM39.4873 14.2929L39.3459 14.1515L39.3328 14.1646L39.3223 14.18L39.4873 14.2929ZM39.7653 14.5709L39.8783 14.736L39.8936 14.7255L39.9068 14.7123L39.7653 14.5709ZM39.8653 14.4709L40.0068 14.3295L39.8654 14.1881L39.7239 14.3295L39.8653 14.4709ZM40.0753 14.6809L39.9339 14.8223L39.9471 14.8355L39.9624 14.846L40.0753 14.6809ZM40.3533 14.4029L40.5184 14.29L40.5079 14.2746L40.4948 14.2615L40.3533 14.4029ZM40.1433 14.1929L40.0019 14.0515L39.8605 14.1929L40.0019 14.3343L40.1433 14.1929ZM40.8433 13.4929L40.9848 13.6343L40.9848 13.6343L40.8433 13.4929ZM40.8653 13.4399L41.0068 13.2985L40.8153 13.107L40.6886 13.3463L40.8653 13.4399ZM41.2413 13.8159L41.3828 13.9573L41.5242 13.8159L41.3828 13.6745L41.2413 13.8159ZM40.8413 14.2159L40.6999 14.0745L40.686 14.0884L40.675 14.1048L40.8413 14.2159ZM41.1193 14.4929L41.231 14.6588L41.2471 14.648L41.2608 14.6343L41.1193 14.4929ZM41.5193 14.0929L41.6608 13.9515L41.5193 13.8101L41.3779 13.9515L41.5193 14.0929ZM41.6303 14.2039L41.7954 14.091L41.7849 14.0756L41.7718 14.0625L41.6303 14.2039ZM41.9083 13.9259L41.7669 14.0673L41.7801 14.0805L41.7954 14.091L41.9083 13.9259ZM41.7973 13.8149L41.656 13.6734L41.5144 13.8148L41.6559 13.9563L41.7973 13.8149ZM42.3863 13.2269L42.5863 13.2253L42.5826 12.7484L42.245 13.0854L42.3863 13.2269ZM42.4403 19.3109L42.6403 19.3093L42.6403 19.3089L42.4403 19.3109ZM42.6373 42.6669L42.8373 42.666L42.8373 42.6651L42.6373 42.6669ZM41.4373 47.7149L41.5844 47.8505L41.5851 47.8497L41.4373 47.7149ZM35.9913 49.2399L35.9896 49.0399L35.9894 49.0399L35.9913 49.2399ZM13.5463 49.4569L13.5444 49.2569L13.5443 49.2569L13.5463 49.4569ZM4.68035 46.4769L4.8512 46.3729L4.85104 46.3727L4.68035 46.4769ZM3.78032 41.3758L3.58032 41.375L3.58032 41.375L3.78032 41.3758ZM3.78035 41.3699V41.1699H3.58117L3.58035 41.3691L3.78035 41.3699ZM42.062 12.0882C39.4133 12.8219 36.6688 13.1503 33.9218 13.062L33.9089 13.4618C36.6963 13.5514 39.4812 13.2182 42.1687 12.4737L42.062 12.0882ZM33.9222 13.062C32.5817 13.0164 31.8477 12.7576 31.444 12.2522C31.0329 11.7376 30.9156 10.9113 30.9771 9.58821L30.5776 9.56962C30.5161 10.8896 30.6178 11.8587 31.1315 12.5019C31.6525 13.1542 32.549 13.4155 33.9085 13.4618L33.9222 13.062ZM30.9771 9.58816C31.0348 8.34161 31.1514 7.2419 31.2798 6.08216C31.408 4.92298 31.548 3.70409 31.6509 2.2268L31.2518 2.19902C31.1497 3.66674 31.0106 4.87735 30.8822 6.03816C30.7538 7.19843 30.6359 8.30922 30.5776 9.56967L30.9771 9.58816ZM31.3122 2.3566C33.1833 4.16813 34.9499 5.81413 36.698 7.44239C38.4465 9.07095 40.1763 10.6817 41.9762 12.4246L42.2545 12.1372C40.4514 10.3912 38.7187 8.77788 36.9707 7.14969C35.2223 5.52119 33.4584 3.87769 31.5905 2.06922L31.3122 2.3566ZM41.7739 13.0005L41.3739 13.4005L41.6568 13.6833L42.0568 13.2833L41.7739 13.0005ZM41.6571 13.4008L41.4211 13.1638L41.1376 13.446L41.3736 13.683L41.6571 13.4008ZM41.3268 13.4992C41.5417 13.4467 41.7557 13.3902 41.9658 13.3354L41.8649 12.9484C41.653 13.0036 41.443 13.0591 41.2319 13.1106L41.3268 13.4992ZM40.1159 13.3825L39.7219 13.7765L40.0048 14.0593L40.3988 13.6653L40.1159 13.3825ZM40.0048 13.7765L39.7298 13.5015L39.4469 13.7843L39.7219 14.0593L40.0048 13.7765ZM39.6241 13.8397L39.6243 13.8397L39.5527 13.4461L39.5526 13.4461L39.6241 13.8397ZM39.6221 13.84C39.8447 13.8021 40.0698 13.7638 40.2952 13.7203L40.2195 13.3275C39.999 13.37 39.7782 13.4077 39.5549 13.4457L39.6221 13.84ZM38.3489 13.6745L38.0079 14.0155L38.2908 14.2983L38.6318 13.9573L38.3489 13.6745ZM38.2908 14.0155L38.0148 13.7395L37.7319 14.0223L38.0079 14.2983L38.2908 14.0155ZM37.8936 14.0799C38.0945 14.0594 38.3076 14.0417 38.5165 14.0142L38.4642 13.6176C38.2631 13.6441 38.0642 13.6604 37.8531 13.6819L37.8936 14.0799ZM36.4489 13.8595L36.0729 14.2355L36.3558 14.5183L36.7318 14.1423L36.4489 13.8595ZM36.3558 14.2355L36.0058 13.8855L35.7229 14.1683L36.0729 14.5183L36.3558 14.2355ZM35.8718 14.2268C36.1081 14.218 36.3603 14.2147 36.6062 14.1964L36.5765 13.7975C36.3404 13.8151 36.1066 13.8178 35.8569 13.827L35.8718 14.2268ZM36.3973 13.9484L36.3963 13.9524L36.7844 14.0494L36.7854 14.0454L36.3973 13.9484ZM34.6739 13.9206L34.6729 13.9216L34.9558 14.2043L34.9568 14.2033L34.6739 13.9206ZM34.6729 13.9215L34.2589 14.3355L34.5418 14.6183L34.9558 14.2043L34.6729 13.9215ZM34.5418 14.3355L34.1128 13.9065L33.8299 14.1893L34.2589 14.6183L34.5418 14.3355ZM33.9647 14.2478C34.2478 14.2572 34.5308 14.2622 34.8139 14.2629L34.8148 13.8629C34.5359 13.8622 34.2569 13.8573 33.978 13.848L33.9647 14.2478ZM34.8144 14.2629L34.8153 14.2629V13.8629L34.8144 13.8629V14.2629ZM35.0153 14.0629V14.0619H34.6153V14.0629H35.0153ZM33.0629 13.8555L32.6469 14.2715L32.9298 14.5543L33.3458 14.1383L33.0629 13.8555ZM32.9298 14.2715L32.3298 13.6715L32.0469 13.9543L32.6469 14.5543L32.9298 14.2715ZM32.1351 14.0057C32.4791 14.1007 32.8311 14.1645 33.1866 14.1961L33.2221 13.7977C32.8906 13.7682 32.5624 13.7087 32.2416 13.6201L32.1351 14.0057ZM3.98534 41.3708C4.03068 30.8755 4.08168 20.3756 4.13834 9.87099L3.73835 9.86883C3.68168 20.3736 3.63068 30.8736 3.58535 41.3691L3.98534 41.3708ZM4.13834 9.87068C4.14984 6.85399 4.4909 4.82106 5.62109 3.47595C6.74647 2.13658 8.69737 1.43115 12.0702 1.19643L12.0425 0.797395C8.64732 1.03367 6.55072 1.74775 5.31485 3.21863C4.0838 4.68377 3.74985 6.85183 3.73835 9.86915L4.13834 9.87068ZM12.07 1.19644C18.2798 0.769949 24.5174 1.00407 30.6777 1.89485L30.735 1.49897C24.5466 0.60413 18.2807 0.368949 12.0426 0.797383L12.07 1.19644ZM30.5067 1.68554C30.426 3.10125 30.2809 4.37989 30.1396 5.64864C29.9984 6.9162 29.8609 8.17388 29.7976 9.53864L30.1971 9.55718C30.2598 8.20694 30.3958 6.96113 30.5371 5.69293C30.6783 4.42594 30.8247 3.13658 30.906 1.70829L30.5067 1.68554ZM29.7976 9.53862C29.7291 11.0116 29.7671 12.5853 31.0938 13.5242L31.3249 13.1977C30.1956 12.3985 30.1276 11.0522 30.1971 9.5572L29.7976 9.53862ZM31.0255 13.4397C31.0224 13.4324 31.0213 13.4277 31.022 13.4303C31.0224 13.4318 31.0227 13.4328 31.0237 13.4368C31.0245 13.4399 31.0259 13.445 31.0275 13.4506C31.0338 13.4717 31.0497 13.5211 31.0939 13.5653L31.3768 13.2825C31.3903 13.296 31.399 13.3098 31.4043 13.3204C31.4068 13.3255 31.4085 13.3297 31.4095 13.3325C31.4106 13.3352 31.4111 13.337 31.4112 13.3372C31.4112 13.3373 31.411 13.3368 31.4104 13.3344C31.41 13.3328 31.4088 13.3282 31.4076 13.3241C31.4064 13.3196 31.4046 13.3135 31.4024 13.3066C31.4001 13.2996 31.3971 13.2913 31.3932 13.2821L31.0255 13.4397ZM31.094 13.5654L32.369 14.8384L32.6517 14.5554L31.3767 13.2824L31.094 13.5654ZM32.3689 14.5555L32.0489 14.8755L32.3318 15.1583L32.6518 14.8383L32.3689 14.5555ZM32.0253 14.904C31.9726 14.981 31.9485 15.074 31.9571 15.1669L32.3554 15.1299L32.3554 15.1299L32.0253 14.904ZM31.9571 15.1669C31.9658 15.2598 32.0066 15.3467 32.0726 15.4127L32.3554 15.1299L32.3554 15.1299L31.9571 15.1669ZM32.0726 15.4127C32.1385 15.4787 32.2255 15.5195 32.3184 15.5281L32.3554 15.1299L32.3554 15.1299L32.0726 15.4127ZM32.3184 15.5281C32.4113 15.5368 32.5043 15.5127 32.5813 15.46L32.3554 15.1299L32.3554 15.1299L32.3184 15.5281ZM32.6098 15.4363L32.9298 15.1163L32.6469 14.8335L32.3269 15.1535L32.6098 15.4363ZM32.6469 15.1163L33.2809 15.7503L33.5638 15.4675L32.9298 14.8335L32.6469 15.1163ZM33.3094 15.774C33.3864 15.8267 33.4794 15.8508 33.5723 15.8421L33.5353 15.4439L33.5353 15.4439L33.3094 15.774ZM33.5723 15.8421C33.6652 15.8335 33.7522 15.7927 33.8181 15.7267L33.5353 15.4439L33.5353 15.4439L33.5723 15.8421ZM33.8181 15.7267C33.8841 15.6607 33.9249 15.5738 33.9336 15.4809L33.5353 15.4439L33.5353 15.4439L33.8181 15.7267ZM33.9336 15.4809C33.9422 15.388 33.9181 15.295 33.8654 15.218L33.5353 15.4439L33.5353 15.4439L33.9336 15.4809ZM33.8418 15.1895L33.2078 14.5555L32.9249 14.8383L33.5589 15.4723L33.8418 15.1895ZM33.2078 14.8383L33.7078 14.3383L33.4249 14.0555L32.9249 14.5555L33.2078 14.8383ZM33.4249 14.3383L33.9839 14.8973L34.2668 14.6145L33.7078 14.0555L33.4249 14.3383ZM33.9839 14.6145L33.9239 14.6745L34.2068 14.9573L34.2668 14.8973L33.9839 14.6145ZM33.899 14.7048C33.8476 14.7819 33.8244 14.8744 33.8336 14.9666L34.2317 14.927L34.2317 14.927L33.899 14.7048ZM33.8336 14.9666C33.8428 15.0588 33.8837 15.145 33.9493 15.2104L34.2317 14.927L34.2317 14.927L33.8336 14.9666ZM33.9493 15.2104C34.015 15.2758 34.1013 15.3163 34.1935 15.3252L34.2317 14.927L34.2317 14.927L33.9493 15.2104ZM34.1935 15.3252C34.2857 15.334 34.3782 15.3106 34.455 15.2588L34.2317 14.927L34.2317 14.927L34.1935 15.3252ZM34.4848 15.2343L34.5448 15.1743L34.2619 14.8915L34.2019 14.9515L34.4848 15.2343ZM34.2619 15.1743L34.6209 15.5333L34.9038 15.2505L34.5448 14.8915L34.2619 15.1743ZM34.5964 15.5036C34.6294 15.5526 34.6729 15.5937 34.7237 15.6239L34.9283 15.2802L34.9283 15.2802L34.5964 15.5036ZM34.7237 15.6239C34.7744 15.6542 34.8313 15.6728 34.8901 15.6784L34.9283 15.2802L34.9283 15.2802L34.7237 15.6239ZM34.8901 15.6784C34.9489 15.684 35.0083 15.6766 35.0638 15.6565L34.9283 15.2802L34.9283 15.2802L34.8901 15.6784ZM35.0638 15.6565C35.1194 15.6365 35.1699 15.6044 35.2116 15.5626L34.9283 15.2802L34.9283 15.2802L35.0638 15.6565ZM35.2116 15.5626C35.2533 15.5207 35.2852 15.4701 35.3051 15.4145L34.9283 15.2802L34.9283 15.2802L35.2116 15.5626ZM35.3051 15.4145C35.3249 15.3588 35.3321 15.2994 35.3263 15.2406L34.9283 15.2802L34.9283 15.2802L35.3051 15.4145ZM35.3263 15.2406C35.3204 15.1818 35.3016 15.1251 35.2712 15.0744L34.9283 15.2802L34.9283 15.2802L35.3263 15.2406ZM35.2712 15.0744C35.2408 15.0237 35.1996 14.9804 35.1504 14.9476L34.9283 15.2802L34.9283 15.2802L35.2712 15.0744ZM35.1808 14.9725L34.8218 14.6135L34.5389 14.8963L34.8979 15.2553L35.1808 14.9725ZM34.8218 14.8963L35.5008 14.2173L35.2179 13.9345L34.5389 14.6135L34.8218 14.8963ZM35.2179 14.2173L35.7969 14.7963L36.0798 14.5135L35.5008 13.9345L35.2179 14.2173ZM35.7969 14.5135L35.5969 14.7135L35.8798 14.9963L36.0798 14.7963L35.7969 14.5135ZM35.6267 14.689C35.5776 14.722 35.5365 14.7655 35.5063 14.8162L35.85 15.0208L35.85 15.0208L35.6267 14.689ZM35.5063 14.8162C35.4761 14.867 35.4575 14.9238 35.4519 14.9827L35.85 15.0208L35.85 15.0208L35.5063 14.8162ZM35.4519 14.9827C35.4462 15.0415 35.4537 15.1008 35.4737 15.1564L35.85 15.0208L35.85 15.0208L35.4519 14.9827ZM35.4737 15.1564C35.4938 15.212 35.5259 15.2625 35.5677 15.3042L35.85 15.0208L35.85 15.0208L35.4737 15.1564ZM35.5677 15.3042C35.6096 15.3459 35.6601 15.3778 35.7158 15.3976L35.85 15.0208L35.85 15.0208L35.5677 15.3042ZM35.7158 15.3976C35.7715 15.4174 35.8308 15.4247 35.8896 15.4189L35.85 15.0208L35.85 15.0208L35.7158 15.3976ZM35.8896 15.4189C35.9484 15.413 36.0052 15.3942 36.0559 15.3638L35.85 15.0208L35.85 15.0208L35.8896 15.4189ZM36.0559 15.3638C36.1065 15.3334 36.1498 15.2921 36.1827 15.243L35.85 15.0208L35.85 15.0208L36.0559 15.3638ZM36.1578 15.2733L36.3578 15.0733L36.0749 14.7905L35.8749 14.9905L36.1578 15.2733ZM36.0749 15.0733L36.4449 15.4433L36.7278 15.1605L36.3578 14.7905L36.0749 15.0733ZM36.4734 15.467C36.5504 15.5197 36.6434 15.5438 36.7363 15.5351L36.6993 15.1369L36.6993 15.1369L36.4734 15.467ZM36.7363 15.5351C36.8292 15.5265 36.9162 15.4857 36.9821 15.4197L36.6993 15.1369L36.6993 15.1369L36.7363 15.5351ZM36.9821 15.4197C37.0481 15.3537 37.0889 15.2668 37.0976 15.1739L36.6993 15.1369L36.6993 15.1369L36.9821 15.4197ZM37.0976 15.1739C37.1062 15.081 37.0821 14.988 37.0294 14.911L36.6993 15.1369L36.6993 15.1369L37.0976 15.1739ZM37.0058 14.8825L36.6358 14.5125L36.3529 14.7953L36.7229 15.1653L37.0058 14.8825ZM36.6358 14.7953L37.3358 14.0953L37.0529 13.8125L36.3529 14.5125L36.6358 14.7953ZM37.1943 14.1539C37.238 14.1539 37.2783 14.1492 37.3105 14.1449C37.3469 14.14 37.3676 14.1365 37.3932 14.1339L37.3534 13.7359C37.3191 13.7393 37.2803 13.7453 37.2572 13.7484C37.2298 13.7521 37.2107 13.7539 37.1943 13.7539V14.1539ZM37.2319 14.0763L37.7319 14.5763L38.0148 14.2935L37.5148 13.7935L37.2319 14.0763ZM37.7319 14.2935L37.3529 14.6725L37.6358 14.9553L38.0148 14.5763L37.7319 14.2935ZM37.3827 14.648C37.3336 14.681 37.2925 14.7245 37.2623 14.7752L37.606 14.9798L37.606 14.9798L37.3827 14.648ZM37.2623 14.7752C37.2321 14.826 37.2135 14.8828 37.2079 14.9417L37.606 14.9798L37.606 14.9798L37.2623 14.7752ZM37.2079 14.9417C37.2022 15.0005 37.2097 15.0598 37.2297 15.1154L37.606 14.9798L37.606 14.9798L37.2079 14.9417ZM37.2297 15.1154C37.2498 15.171 37.2819 15.2215 37.3237 15.2632L37.606 14.9798L37.606 14.9798L37.2297 15.1154ZM37.3237 15.2632C37.3656 15.3049 37.4161 15.3368 37.4718 15.3566L37.606 14.9798L37.606 14.9798L37.3237 15.2632ZM37.4718 15.3566C37.5275 15.3764 37.5868 15.3837 37.6456 15.3779L37.606 14.9798L37.606 14.9798L37.4718 15.3566ZM37.6456 15.3779C37.7044 15.372 37.7612 15.3532 37.8119 15.3228L37.606 14.9798L37.606 14.9798L37.6456 15.3779ZM37.8119 15.3228C37.8625 15.2924 37.9058 15.2511 37.9387 15.202L37.606 14.9798L37.606 14.9798L37.8119 15.3228ZM37.9138 15.2323L38.2928 14.8533L38.0099 14.5705L37.6309 14.9495L37.9138 15.2323ZM38.0099 14.8533L38.2359 15.0793L38.5188 14.7965L38.2928 14.5705L38.0099 14.8533ZM38.2663 15.1042C38.3433 15.1557 38.4358 15.1788 38.528 15.1696L38.4884 14.7716L38.4884 14.7716L38.2663 15.1042ZM38.528 15.1696C38.6202 15.1605 38.7064 15.1196 38.7718 15.0539L38.4884 14.7716L38.4884 14.7716L38.528 15.1696ZM38.7718 15.0539C38.8372 14.9883 38.8778 14.902 38.8866 14.8098L38.4884 14.7716L38.4884 14.7716L38.7718 15.0539ZM38.8866 14.8098C38.8955 14.7175 38.872 14.6251 38.8203 14.5482L38.4884 14.7716L38.4884 14.7716L38.8866 14.8098ZM38.7958 14.5185L38.5698 14.2925L38.2869 14.5753L38.5129 14.8013L38.7958 14.5185ZM38.5698 14.5753L39.2698 13.8753L38.9869 13.5925L38.2869 14.2925L38.5698 14.5753ZM38.9869 13.8753L39.4459 14.3343L39.7288 14.0515L39.2698 13.5925L38.9869 13.8753ZM39.4459 14.0515L39.3459 14.1515L39.6288 14.4343L39.7288 14.3343L39.4459 14.0515ZM39.3223 14.18C39.2696 14.257 39.2455 14.35 39.2541 14.4429L39.6524 14.4059L39.6524 14.4059L39.3223 14.18ZM39.2541 14.4429C39.2627 14.5358 39.3036 14.6227 39.3696 14.6887L39.6524 14.4059L39.6524 14.4059L39.2541 14.4429ZM39.3696 14.6887C39.4355 14.7547 39.5225 14.7955 39.6154 14.8041L39.6524 14.4059L39.6524 14.4059L39.3696 14.6887ZM39.6154 14.8041C39.7083 14.8128 39.8013 14.7887 39.8783 14.736L39.6524 14.4059L39.6524 14.4059L39.6154 14.8041ZM39.9068 14.7123L40.0068 14.6123L39.7239 14.3295L39.6239 14.4295L39.9068 14.7123ZM39.7239 14.6123L39.9339 14.8223L40.2168 14.5395L40.0068 14.3295L39.7239 14.6123ZM39.9624 14.846C40.0394 14.8987 40.1324 14.9228 40.2253 14.9141L40.1883 14.5159L40.1883 14.5159L39.9624 14.846ZM40.2253 14.9141C40.3182 14.9055 40.4052 14.8647 40.4711 14.7987L40.1883 14.5159L40.1883 14.5159L40.2253 14.9141ZM40.4711 14.7987C40.5371 14.7327 40.5779 14.6458 40.5866 14.5529L40.1883 14.5159L40.1883 14.5159L40.4711 14.7987ZM40.5866 14.5529C40.5952 14.46 40.5711 14.367 40.5184 14.29L40.1883 14.5159L40.1883 14.5159L40.5866 14.5529ZM40.4948 14.2615L40.2848 14.0515L40.0019 14.3343L40.2119 14.5443L40.4948 14.2615ZM40.2848 14.3343L40.9848 13.6343L40.7019 13.3515L40.0019 14.0515L40.2848 14.3343ZM40.9848 13.6343C41.0304 13.5887 41.0448 13.5374 41.0497 13.5193C41.0509 13.5149 41.052 13.5104 41.0523 13.5091C41.0529 13.5069 41.0528 13.5072 41.0525 13.5082C41.052 13.5101 41.049 13.5204 41.0421 13.5335L40.6886 13.3463C40.6772 13.3679 40.6711 13.3872 40.6679 13.3983C40.6663 13.4039 40.6651 13.4088 40.6645 13.4113C40.664 13.4129 40.6639 13.4135 40.6637 13.4143C40.6635 13.415 40.6635 13.4151 40.6635 13.415C40.6636 13.4148 40.6642 13.4126 40.6653 13.4093C40.6664 13.406 40.6683 13.4009 40.6712 13.3949C40.6741 13.3888 40.678 13.3817 40.6832 13.3741C40.6884 13.3664 40.6947 13.3588 40.7019 13.3515L40.9848 13.6343ZM40.7239 13.5813L41.0999 13.9573L41.3828 13.6745L41.0068 13.2985L40.7239 13.5813ZM41.0999 13.6745L40.6999 14.0745L40.9828 14.3573L41.3828 13.9573L41.0999 13.6745ZM40.675 14.1048C40.6236 14.1819 40.6004 14.2744 40.6096 14.3666L41.0077 14.327L41.0077 14.327L40.675 14.1048ZM40.6096 14.3666C40.6188 14.4588 40.6597 14.545 40.7253 14.6104L41.0077 14.327L41.0077 14.327L40.6096 14.3666ZM40.7253 14.6104C40.791 14.6758 40.8773 14.7163 40.9695 14.7252L41.0077 14.327L41.0077 14.327L40.7253 14.6104ZM40.9695 14.7252C41.0617 14.734 41.1542 14.7106 41.231 14.6588L41.0076 14.327L41.0077 14.327L40.9695 14.7252ZM41.2608 14.6343L41.6608 14.2343L41.3779 13.9515L40.9779 14.3515L41.2608 14.6343ZM41.3779 14.2343L41.4889 14.3453L41.7718 14.0625L41.6608 13.9515L41.3779 14.2343ZM41.4653 14.3168C41.4985 14.3654 41.542 14.406 41.5926 14.4358L41.7954 14.091L41.7954 14.091L41.4653 14.3168ZM41.5926 14.4358C41.6433 14.4655 41.6999 14.4838 41.7584 14.4893L41.7954 14.091L41.7954 14.091L41.5926 14.4358ZM41.7584 14.4893C41.8169 14.4947 41.8759 14.4872 41.9312 14.4672L41.7954 14.091L41.7954 14.091L41.7584 14.4893ZM41.9312 14.4672C41.9865 14.4473 42.0367 14.4154 42.0783 14.3738L41.7954 14.091L41.7954 14.091L41.9312 14.4672ZM42.0783 14.3738C42.1198 14.3323 42.1517 14.282 42.1717 14.2268L41.7954 14.091L41.7954 14.091L42.0783 14.3738ZM42.1717 14.2268C42.1916 14.1715 42.1991 14.1125 42.1937 14.054L41.7954 14.091L41.7954 14.091L42.1717 14.2268ZM42.1937 14.054C42.1883 13.9954 42.17 13.9388 42.1402 13.8882L41.7954 14.091L41.7954 14.091L42.1937 14.054ZM42.1402 13.8882C42.1104 13.8375 42.0698 13.7941 42.0213 13.7609L41.7954 14.091L41.7954 14.091L42.1402 13.8882ZM42.0498 13.7845L41.9388 13.6735L41.6559 13.9563L41.7669 14.0673L42.0498 13.7845ZM41.9386 13.9565L42.5276 13.3685L42.245 13.0854L41.656 13.6734L41.9386 13.9565ZM42.1864 13.2285C42.2024 15.2573 42.2204 17.2854 42.2404 19.3129L42.6403 19.3089C42.6203 17.2817 42.6023 15.2539 42.5863 13.2253L42.1864 13.2285ZM42.2404 19.3125C42.2744 23.6019 42.3987 38.3746 42.4374 42.6687L42.8373 42.6651C42.7987 38.3712 42.6743 23.5986 42.6403 19.3093L42.2404 19.3125ZM42.4374 42.6678C42.4418 43.6455 42.4227 44.5822 42.266 45.4251C42.1096 46.2659 41.8187 46.9997 41.2895 47.5802L41.5851 47.8497C42.181 47.1961 42.4946 46.3839 42.6592 45.4982C42.8235 44.6146 42.8418 43.6443 42.8373 42.666L42.4374 42.6678ZM41.2903 47.5793C40.694 48.226 39.8908 48.5886 38.9693 48.7906C38.0458 48.993 37.0193 49.0309 35.9896 49.0399L35.9931 49.4399C37.0244 49.4309 38.0874 49.3934 39.0549 49.1813C40.0244 48.9688 40.9137 48.5778 41.5844 47.8505L41.2903 47.5793ZM35.9894 49.0399L13.5444 49.2569L13.5483 49.6569L35.9933 49.4399L35.9894 49.0399ZM13.5443 49.2569C12.2918 49.27 10.575 49.3068 8.93434 48.9556C7.29545 48.6047 5.76415 47.8731 4.8512 46.3729L4.5095 46.5809C5.50255 48.2127 7.15674 48.9841 8.8506 49.3467C10.5427 49.709 12.3059 49.6699 13.5484 49.6569L13.5443 49.2569ZM4.85104 46.3727C3.97097 44.9315 3.97327 43.0796 3.98032 41.3766L3.58032 41.375C3.57338 43.051 3.55984 45.0258 4.50966 46.5811L4.85104 46.3727ZM3.98032 41.3766L3.98034 41.3707L3.58035 41.3691L3.58032 41.375L3.98032 41.3766ZM3.78035 41.5699H3.78535V41.1699H3.78035V41.5699ZM13.5583 50.2439L13.5545 49.8439L13.554 49.8439L13.5583 50.2439ZM36.0023 50.0269L35.9988 49.6269L35.9985 49.6269L36.0023 50.0269ZM42.0203 48.2469L42.3144 48.5181L42.3165 48.5158L42.0203 48.2469ZM43.4203 42.6639L43.8203 42.6616L43.8203 42.66L43.4203 42.6639ZM43.2123 18.5359L43.6123 18.5331L43.6123 18.5316L43.2123 18.5359ZM43.1573 12.3609L43.5574 12.3581L43.5573 12.3542L43.1573 12.3609ZM43.0383 12.0829L42.7531 12.3634L42.7574 12.3676L43.0383 12.0829ZM31.1833 0.963913L31.1246 1.35958L31.1255 1.35971L31.1833 0.963913ZM12.0013 0.210913L11.9738 -0.188139L11.9733 -0.188104L12.0013 0.210913ZM3.15335 9.86991L3.55334 9.87197L3.55334 9.87144L3.15335 9.86991ZM3.00035 41.3659L3.40034 41.3678L3.40034 41.3677L3.00035 41.3659ZM13.5622 50.6439L36.0062 50.4269L35.9985 49.6269L13.5545 49.8439L13.5622 50.6439ZM36.0059 50.4269C37.0766 50.4174 38.2482 50.3742 39.3462 50.1219C40.4479 49.8687 41.5019 49.3991 42.3144 48.5181L41.7263 47.9757C41.0578 48.7007 40.1703 49.1116 39.167 49.3422C38.1599 49.5736 37.063 49.6175 35.9988 49.6269L36.0059 50.4269ZM42.3165 48.5158C43.7469 46.9404 43.8322 44.761 43.8203 42.6616L43.0204 42.6662C43.0325 44.8028 42.9178 46.6635 41.7242 47.978L42.3165 48.5158ZM43.8203 42.66C43.7757 38.0922 43.6443 23.0893 43.6123 18.5331L42.8124 18.5387C42.8444 23.0959 42.9757 38.0996 43.0204 42.6678L43.8203 42.66ZM43.6123 18.5316C43.5903 16.4734 43.572 14.4156 43.5573 12.3581L42.7574 12.3638C42.772 14.4222 42.7904 16.481 42.8124 18.5402L43.6123 18.5316ZM43.5573 12.3542C43.5538 12.1449 43.4683 11.9452 43.3193 11.7982L42.7574 12.3676L42.7574 12.3676L43.5573 12.3542ZM43.3235 11.8024C43.2566 11.7344 40.3264 8.95231 37.4044 6.19607C35.9406 4.81523 34.4746 3.43688 33.3636 2.40196C32.8083 1.88467 32.3407 1.45223 32.006 1.14792C31.839 0.996063 31.7033 0.874408 31.6057 0.789596C31.5574 0.747632 31.5152 0.711859 31.4818 0.68519C31.4657 0.672354 31.4467 0.657621 31.4276 0.644368C31.4185 0.638038 31.4034 0.627857 31.3849 0.617511C31.3812 0.615431 31.3224 0.579996 31.2412 0.56812L31.1255 1.35971C31.0777 1.35272 31.0428 1.33852 31.0296 1.33292C31.013 1.32586 31.0005 1.31915 30.994 1.31547C30.9809 1.30817 30.9726 1.30235 30.9716 1.30167C30.9688 1.29972 30.9715 1.30147 30.9823 1.31014C31.0028 1.32646 31.0352 1.35373 31.081 1.39353C31.1716 1.47225 31.302 1.589 31.4678 1.73979C31.7988 2.04077 32.2636 2.47058 32.8183 2.98733C33.9274 4.0205 35.392 5.39747 36.8555 6.77801C38.3189 8.15843 39.7808 9.54191 40.8842 10.5879C41.436 11.1109 41.8981 11.5495 42.226 11.8611C42.3899 12.0169 42.5202 12.1409 42.6113 12.2277C42.6569 12.2712 42.6925 12.3052 42.7176 12.3292C42.7459 12.3564 42.7548 12.3651 42.7532 12.3634L43.3235 11.8024ZM31.2421 0.568247C24.8654 -0.37819 18.405 -0.631795 11.9738 -0.188139L12.0289 0.609964C18.4025 0.170281 24.805 0.421615 31.1246 1.35958L31.2421 0.568247ZM11.9733 -0.188104C8.38695 0.0638535 6.04185 0.85537 4.61446 2.51661C3.19445 4.16925 2.76589 6.59001 2.75335 9.86838L3.55334 9.87144C3.5658 6.61482 4.00275 4.45608 5.22123 3.03797C6.43234 1.62846 8.49874 0.857972 12.0294 0.609929L11.9733 -0.188104ZM2.75335 9.86786C2.69935 20.3639 2.64835 30.8627 2.60035 41.3641L3.40034 41.3677C3.44834 30.8665 3.49934 20.3679 3.55334 9.87197L2.75335 9.86786ZM2.60035 41.364C2.58629 44.3568 2.98736 46.7532 4.64106 48.3633C6.28852 49.9673 9.07804 50.6926 13.5627 50.6439L13.554 49.8439C9.10865 49.8922 6.60517 49.159 5.19914 47.7901C3.79933 46.4272 3.3864 44.3361 3.40034 41.3678L2.60035 41.364Z" fill="white" mask="url(#path-1-inside-1_64_779)"/>
<path d="M8.78037 11.472H22.7204C22.7736 11.4747 22.8268 11.4665 22.8767 11.448C22.9267 11.4295 22.9724 11.401 23.011 11.3643C23.0496 11.3276 23.0803 11.2834 23.1013 11.2345C23.1224 11.1855 23.1332 11.1328 23.1332 11.0795C23.1332 11.0262 23.1224 10.9735 23.1013 10.9246C23.0803 10.8756 23.0496 10.8314 23.011 10.7947C22.9724 10.758 22.9267 10.7295 22.8767 10.711C22.8268 10.6925 22.7736 10.6843 22.7204 10.687H8.78037C8.72716 10.6843 8.67396 10.6925 8.624 10.711C8.57404 10.7295 8.52837 10.758 8.48976 10.7947C8.45115 10.8314 8.4204 10.8756 8.39939 10.9246C8.37839 10.9735 8.36755 11.0262 8.36755 11.0795C8.36755 11.1328 8.37839 11.1855 8.39939 11.2345C8.4204 11.2834 8.45115 11.3276 8.48976 11.3643C8.52837 11.401 8.57404 11.4295 8.624 11.448C8.67396 11.4665 8.72716 11.4747 8.78037 11.472Z" fill="white"/>
<path d="M8.82452 20.9994H37.2553C37.4563 20.9929 37.6457 20.9375 37.7844 20.8445C37.923 20.7516 38.0004 20.6282 38.0004 20.5C38.0004 20.3718 37.923 20.2484 37.7844 20.1555C37.6457 20.0625 37.4563 20.0071 37.2553 20.0006H8.82452C8.71829 19.9972 8.61208 20.0076 8.51234 20.0312C8.4126 20.0547 8.32142 20.0909 8.24434 20.1376C8.16725 20.1843 8.10587 20.2406 8.06393 20.3028C8.02199 20.3651 8.00037 20.4322 8.00037 20.5C8.00037 20.5678 8.02199 20.6349 8.06393 20.6972C8.10587 20.7594 8.16725 20.8157 8.24434 20.8624C8.32142 20.9091 8.4126 20.9453 8.51234 20.9688C8.61208 20.9924 8.71829 21.0028 8.82452 20.9994Z" fill="white"/>
<path d="M8.82452 29.9994H37.2553C37.4563 29.9929 37.6457 29.9375 37.7844 29.8445C37.923 29.7516 38.0004 29.6282 38.0004 29.5C38.0004 29.3718 37.923 29.2484 37.7844 29.1555C37.6457 29.0625 37.4563 29.0071 37.2553 29.0006H8.82452C8.71829 28.9972 8.61208 29.0076 8.51234 29.0312C8.4126 29.0547 8.32142 29.0909 8.24434 29.1376C8.16725 29.1843 8.10587 29.2406 8.06393 29.3028C8.02199 29.3651 8.00037 29.4322 8.00037 29.5C8.00037 29.5678 8.02199 29.6349 8.06393 29.6972C8.10587 29.7594 8.16725 29.8157 8.24434 29.8624C8.32142 29.9091 8.4126 29.9453 8.51234 29.9688C8.61208 29.9924 8.71829 30.0028 8.82452 29.9994Z" fill="white"/>
<path d="M8.82452 37.9994H37.2553C37.4563 37.9929 37.6457 37.9375 37.7844 37.8445C37.923 37.7516 38.0004 37.6282 38.0004 37.5C38.0004 37.3718 37.923 37.2484 37.7844 37.1555C37.6457 37.0625 37.4563 37.0071 37.2553 37.0006H8.82452C8.71829 36.9972 8.61208 37.0076 8.51234 37.0312C8.4126 37.0547 8.32142 37.0909 8.24434 37.1376C8.16725 37.1843 8.10587 37.2406 8.06393 37.3028C8.02199 37.3651 8.00037 37.4322 8.00037 37.5C8.00037 37.5678 8.02199 37.6349 8.06393 37.6972C8.10587 37.7594 8.16725 37.8157 8.24434 37.8624C8.32142 37.9091 8.4126 37.9453 8.51234 37.9688C8.61208 37.9924 8.71829 38.0028 8.82452 37.9994Z" fill="white"/>
<path d="M31.5663 6.06602C31.5206 6.0747 31.4793 6.09908 31.4496 6.13495C31.4198 6.17082 31.4036 6.21594 31.4036 6.26252C31.4036 6.3091 31.4198 6.35422 31.4496 6.39009C31.4793 6.42597 31.5206 6.45035 31.5663 6.45902H31.8883L31.8563 7.28102H31.7913C31.7624 7.27554 31.7327 7.27651 31.7042 7.28385C31.6757 7.29119 31.6492 7.30472 31.6265 7.32349C31.6039 7.34226 31.5856 7.36579 31.5731 7.39242C31.5606 7.41904 31.5541 7.4481 31.5541 7.47752C31.5541 7.50694 31.5606 7.536 31.5731 7.56263C31.5856 7.58925 31.6039 7.61278 31.6265 7.63155C31.6492 7.65032 31.6757 7.66385 31.7042 7.6712C31.7327 7.67854 31.7624 7.6795 31.7913 7.67402H31.8403L31.8053 8.57402L31.5543 8.58902C31.5093 8.59949 31.4693 8.62523 31.4411 8.66186C31.413 8.69849 31.3983 8.74375 31.3998 8.78994C31.4012 8.83613 31.4185 8.88041 31.4489 8.91524C31.4793 8.95008 31.5208 8.97332 31.5663 8.98102H31.5783L31.7913 8.96802L31.7723 9.45102L31.7463 9.45702C31.6964 9.47025 31.6534 9.50232 31.6266 9.54651C31.5997 9.5907 31.591 9.64356 31.6023 9.69402C31.6123 9.72933 31.6322 9.76103 31.6597 9.78532C31.6872 9.80962 31.7211 9.82548 31.7573 9.83102L31.7383 10.305C31.7382 10.356 31.7577 10.4052 31.7926 10.4424C31.8276 10.4795 31.8754 10.502 31.9263 10.505H31.9343C31.9854 10.5051 32.0345 10.4857 32.0717 10.4507C32.1089 10.4158 32.1313 10.368 32.1343 10.317L32.1563 9.75702L32.5643 9.65702C32.6055 9.63664 32.6383 9.60273 32.6574 9.56098C32.6765 9.51923 32.6807 9.47219 32.6692 9.42774C32.6577 9.3833 32.6313 9.34416 32.5943 9.31689C32.5574 9.28963 32.5122 9.27591 32.4663 9.27802L32.1663 9.35102L32.1823 8.94302L32.3403 8.93402C32.392 8.92993 32.44 8.90596 32.4743 8.86716C32.5086 8.82837 32.5266 8.77777 32.5243 8.72602C32.5238 8.69994 32.5178 8.67426 32.5069 8.65059C32.4959 8.62692 32.4801 8.60578 32.4606 8.5885C32.4411 8.57122 32.4182 8.55816 32.3933 8.55016C32.3685 8.54217 32.3423 8.53939 32.3163 8.54202L32.1983 8.54702L32.2323 7.67202H32.5093C32.5551 7.66335 32.5964 7.63897 32.6261 7.60309C32.6558 7.56722 32.6721 7.5221 32.6721 7.47552C32.6721 7.42894 32.6558 7.38382 32.6261 7.34795C32.5964 7.31208 32.5551 7.2877 32.5093 7.27902H32.2473L32.2793 6.45702H32.7343C32.7801 6.44835 32.8214 6.42397 32.8511 6.38809C32.8808 6.35222 32.8971 6.3071 32.8971 6.26052C32.8971 6.21394 32.8808 6.16882 32.8511 6.13295C32.8214 6.09707 32.7801 6.0727 32.7343 6.06402H32.2943L32.3163 5.50202C32.3164 5.45099 32.297 5.40186 32.2621 5.36468C32.2271 5.3275 32.1793 5.30508 32.1283 5.30202C32.1027 5.30067 32.0771 5.30452 32.053 5.31334C32.0289 5.32215 32.0069 5.33575 31.9882 5.35332C31.9695 5.37088 31.9546 5.39205 31.9443 5.41555C31.934 5.43904 31.9286 5.46437 31.9283 5.49002L31.9053 6.06702H31.5663V6.06602Z" fill="white" fill-opacity="0.5"/>
</svg>
