<svg width="60" height="60" viewBox="0 0 60 60" fill="none" xmlns="http://www.w3.org/2000/svg">
<circle cx="30" cy="30" r="30" fill="#1B80BF"/>
<path d="M20.2203 51.12L18.5763 49.484L19.1803 48.88L20.8163 50.516L20.2203 51.12ZM18.1483 51.12C17.5723 51.12 17.079 50.9947 16.6683 50.744C16.2577 50.4907 15.9417 50.1387 15.7203 49.688C15.5017 49.2373 15.3923 48.7147 15.3923 48.12C15.3923 47.5253 15.5017 47.0027 15.7203 46.552C15.9417 46.1013 16.2577 45.7507 16.6683 45.5C17.079 45.2467 17.5723 45.12 18.1483 45.12C18.7243 45.12 19.2177 45.2467 19.6283 45.5C20.0417 45.7507 20.3577 46.1013 20.5763 46.552C20.7977 47.0027 20.9083 47.5253 20.9083 48.12C20.9083 48.7147 20.7977 49.2373 20.5763 49.688C20.3577 50.1387 20.0417 50.4907 19.6283 50.744C19.2177 50.9947 18.7243 51.12 18.1483 51.12ZM18.1483 50.212C18.535 50.2147 18.8563 50.1293 19.1123 49.956C19.371 49.7827 19.5643 49.5387 19.6923 49.224C19.823 48.9093 19.8883 48.5413 19.8883 48.12C19.8883 47.6987 19.823 47.3333 19.6923 47.024C19.5643 46.712 19.371 46.4693 19.1123 46.296C18.8563 46.1227 18.535 46.0333 18.1483 46.028C17.7617 46.0253 17.4403 46.1107 17.1843 46.284C16.9283 46.4573 16.735 46.7013 16.6043 47.016C16.4763 47.3307 16.4123 47.6987 16.4123 48.12C16.4123 48.5413 16.4763 48.908 16.6043 49.22C16.7323 49.5293 16.9243 49.7707 17.1803 49.944C17.439 50.1173 17.7617 50.2067 18.1483 50.212ZM25.3821 51.12C24.9608 51.12 24.6074 51.02 24.3221 50.82C24.0368 50.62 23.8221 50.348 23.6781 50.004C23.5341 49.6573 23.4621 49.2693 23.4621 48.84C23.4621 48.4053 23.5341 48.016 23.6781 47.672C23.8221 47.328 24.0328 47.0573 24.3101 46.86C24.5901 46.66 24.9354 46.56 25.3461 46.56C25.7541 46.56 26.1074 46.66 26.4061 46.86C26.7074 47.0573 26.9408 47.328 27.1061 47.672C27.2714 48.0133 27.3541 48.4027 27.3541 48.84C27.3541 49.272 27.2728 49.66 27.1101 50.004C26.9474 50.348 26.7181 50.62 26.4221 50.82C26.1261 51.02 25.7794 51.12 25.3821 51.12ZM23.2981 51V45.24H24.2701V47.968H24.1501V51H23.2981ZM25.2341 50.256C25.4848 50.256 25.6914 50.1933 25.8541 50.068C26.0168 49.9427 26.1368 49.7733 26.2141 49.56C26.2941 49.344 26.3341 49.104 26.3341 48.84C26.3341 48.5787 26.2941 48.3413 26.2141 48.128C26.1341 47.912 26.0101 47.7413 25.8421 47.616C25.6741 47.488 25.4608 47.424 25.2021 47.424C24.9568 47.424 24.7568 47.484 24.6021 47.604C24.4474 47.7213 24.3328 47.8867 24.2581 48.1C24.1861 48.3107 24.1501 48.5573 24.1501 48.84C24.1501 49.12 24.1861 49.3667 24.2581 49.58C24.3328 49.7933 24.4488 49.96 24.6061 50.08C24.7661 50.1973 24.9754 50.256 25.2341 50.256ZM29.4438 51.12C29.1318 51.12 28.8678 51.0613 28.6518 50.944C28.4358 50.824 28.2718 50.6653 28.1598 50.468C28.0504 50.2707 27.9958 50.0533 27.9958 49.816C27.9958 49.608 28.0304 49.4213 28.0998 49.256C28.1691 49.088 28.2758 48.944 28.4198 48.824C28.5638 48.7013 28.7504 48.6013 28.9798 48.524C29.1531 48.468 29.3558 48.4173 29.5878 48.372C29.8224 48.3267 30.0758 48.2853 30.3478 48.248C30.6224 48.208 30.9091 48.1653 31.2078 48.12L30.8638 48.316C30.8664 48.0173 30.7998 47.7973 30.6638 47.656C30.5278 47.5147 30.2984 47.444 29.9758 47.444C29.7811 47.444 29.5931 47.4893 29.4118 47.58C29.2304 47.6707 29.1038 47.8267 29.0318 48.048L28.1518 47.772C28.2584 47.4067 28.4611 47.1133 28.7598 46.892C29.0611 46.6707 29.4664 46.56 29.9758 46.56C30.3598 46.56 30.6971 46.6227 30.9878 46.748C31.2811 46.8733 31.4984 47.0787 31.6398 47.364C31.7171 47.516 31.7638 47.672 31.7798 47.832C31.7958 47.9893 31.8038 48.1613 31.8038 48.348V51H30.9598V50.064L31.0998 50.216C30.9051 50.528 30.6771 50.7573 30.4158 50.904C30.1571 51.048 29.8331 51.12 29.4438 51.12ZM29.6358 50.352C29.8544 50.352 30.0411 50.3133 30.1958 50.236C30.3504 50.1587 30.4731 50.064 30.5638 49.952C30.6571 49.84 30.7198 49.7347 30.7518 49.636C30.8024 49.5133 30.8304 49.3733 30.8358 49.216C30.8438 49.056 30.8478 48.9267 30.8478 48.828L31.1438 48.916C30.8531 48.9613 30.6038 49.0013 30.3958 49.036C30.1878 49.0707 30.0091 49.104 29.8598 49.136C29.7104 49.1653 29.5784 49.1987 29.4638 49.236C29.3518 49.276 29.2571 49.3227 29.1798 49.376C29.1024 49.4293 29.0424 49.4907 28.9998 49.56C28.9598 49.6293 28.9398 49.7107 28.9398 49.804C28.9398 49.9107 28.9664 50.0053 29.0198 50.088C29.0731 50.168 29.1504 50.232 29.2518 50.28C29.3558 50.328 29.4838 50.352 29.6358 50.352ZM35.8332 51V48.92C35.8332 48.784 35.8238 48.6333 35.8052 48.468C35.7865 48.3027 35.7425 48.144 35.6732 47.992C35.6065 47.8373 35.5052 47.7107 35.3692 47.612C35.2358 47.5133 35.0545 47.464 34.8252 47.464C34.7025 47.464 34.5812 47.484 34.4612 47.524C34.3412 47.564 34.2318 47.6333 34.1332 47.732C34.0372 47.828 33.9598 47.9613 33.9012 48.132C33.8425 48.3 33.8132 48.516 33.8132 48.78L33.2412 48.536C33.2412 48.168 33.3118 47.8347 33.4532 47.536C33.5972 47.2373 33.8078 47 34.0852 46.824C34.3625 46.6453 34.7038 46.556 35.1092 46.556C35.4292 46.556 35.6932 46.6093 35.9012 46.716C36.1092 46.8227 36.2745 46.9587 36.3972 47.124C36.5198 47.2893 36.6105 47.4653 36.6692 47.652C36.7278 47.8387 36.7652 48.016 36.7812 48.184C36.7998 48.3493 36.8092 48.484 36.8092 48.588V51H35.8332ZM32.8372 51V46.68H33.6972V48.02H33.8132V51H32.8372ZM37.845 51L37.853 45.24H38.829V48.76L40.409 46.68H41.613L39.937 48.84L41.757 51H40.481L38.829 48.92V51H37.845ZM43.7475 51.12C43.2142 51.12 42.7809 51 42.4475 50.76C42.1142 50.52 41.9115 50.1827 41.8395 49.748L42.8235 49.596C42.8742 49.8093 42.9862 49.9773 43.1595 50.1C43.3329 50.2227 43.5515 50.284 43.8155 50.284C44.0475 50.284 44.2262 50.2387 44.3515 50.148C44.4795 50.0547 44.5435 49.928 44.5435 49.768C44.5435 49.6693 44.5195 49.5907 44.4715 49.532C44.4262 49.4707 44.3249 49.412 44.1675 49.356C44.0102 49.3 43.7689 49.2293 43.4435 49.144C43.0809 49.048 42.7929 48.9453 42.5795 48.836C42.3662 48.724 42.2129 48.592 42.1195 48.44C42.0262 48.288 41.9795 48.104 41.9795 47.888C41.9795 47.6187 42.0502 47.384 42.1915 47.184C42.3329 46.984 42.5302 46.8307 42.7835 46.724C43.0369 46.6147 43.3355 46.56 43.6795 46.56C44.0155 46.56 44.3129 46.612 44.5715 46.716C44.8329 46.82 45.0435 46.968 45.2035 47.16C45.3635 47.352 45.4622 47.5773 45.4995 47.836L44.5155 48.012C44.4915 47.828 44.4075 47.6827 44.2635 47.576C44.1222 47.4693 43.9329 47.4093 43.6955 47.396C43.4689 47.3827 43.2862 47.4173 43.1475 47.5C43.0089 47.58 42.9395 47.6933 42.9395 47.84C42.9395 47.9227 42.9675 47.9933 43.0235 48.052C43.0795 48.1107 43.1915 48.1693 43.3595 48.228C43.5302 48.2867 43.7835 48.3587 44.1195 48.444C44.4635 48.532 44.7382 48.6333 44.9435 48.748C45.1515 48.86 45.3009 48.9947 45.3915 49.152C45.4849 49.3093 45.5315 49.5 45.5315 49.724C45.5315 50.1587 45.3729 50.5 45.0555 50.748C44.7409 50.996 44.3049 51.12 43.7475 51.12Z" fill="white"/>
<path d="M19 11.2059V40H42V11.5H38M19 11.2059L38 8.5V11.5M19 11.2059L38 11.5M25.0154 29.6471H37.0462M25.0154 33.8529H37.0462" stroke="white"/>
<g clip-path="url(#clip0_78_62)">
<path d="M31.2167 22.3229H28.7834V22.0929C28.7834 21.7007 28.8292 21.3815 28.9233 21.1367C29.0173 20.8898 29.1572 20.6679 29.3429 20.4651C29.5287 20.2617 29.946 19.9049 30.5957 19.3947C30.9416 19.1271 31.1141 18.8823 31.1141 18.6604C31.1141 18.4363 31.0442 18.2646 30.9066 18.14C30.7667 18.0176 30.5569 17.9557 30.2748 17.9557C29.9709 17.9557 29.7214 18.0508 29.5225 18.2417C29.3235 18.4304 29.1968 18.7644 29.1416 19.2369L26.6562 18.9443C26.7417 18.0773 27.0736 17.3806 27.651 16.8513C28.23 16.3228 29.1183 16.0596 30.3136 16.0596C31.2447 16.0596 31.9946 16.2439 32.5674 16.611C33.3438 17.1108 33.7332 17.7743 33.7332 18.6044C33.7332 18.9487 33.6329 19.2826 33.4316 19.6019C33.2327 19.9211 32.8216 20.3133 32.2029 20.7733C31.7724 21.0991 31.4988 21.3579 31.3853 21.5555C31.2742 21.7501 31.2167 22.0074 31.2167 22.3229ZM28.6987 22.937H31.3068V25.1191H28.6987V22.937Z" fill="white"/>
</g>
<defs>
<clipPath id="clip0_78_62">
<rect width="7.07692" height="9.05882" fill="white" transform="translate(26.6562 16.0596)"/>
</clipPath>
</defs>
</svg>
