<svg width="86" height="61" viewBox="0 0 86 61" fill="none" xmlns="http://www.w3.org/2000/svg">
<g clip-path="url(#clip0_55_674)">
<path d="M18.899 0C13.9955 0.0205955 9.2919 1.94616 5.78162 5.37003C2.27134 8.79391 0.229167 13.448 0.0863909 18.3495C-0.0563848 23.251 1.71141 28.0161 5.01644 31.6385C8.32147 35.2609 12.905 37.457 17.799 37.763C17.971 39.616 17.842 44.663 13.009 51.676C12.8315 51.9326 12.7497 52.2434 12.7781 52.5541C12.8064 52.8648 12.943 53.1557 13.164 53.376C15.142 55.354 16.364 56.599 17.219 57.47C18.339 58.609 18.85 59.129 19.597 59.808C19.8383 60.0271 20.1515 60.15 20.4774 60.1535C20.8032 60.157 21.1191 60.0408 21.365 59.827C29.787 52.499 39.142 37.357 37.788 18.803C36.999 7.907 29.051 0 18.899 0ZM20.509 57C20.146 56.643 19.733 56.221 19.123 55.6C18.382 54.845 17.365 53.81 15.823 52.262C21.688 43.224 20.581 36.787 20.096 35.862C19.9801 35.6434 19.8076 35.46 19.5964 35.3311C19.3853 35.2021 19.1434 35.1323 18.896 35.129C14.5905 35.129 10.4613 33.4186 7.41682 30.3742C4.37236 27.3297 2.662 23.2005 2.662 18.895C2.662 14.5895 4.37236 10.4603 7.41682 7.41583C10.4613 4.37136 14.5905 2.661 18.896 2.661C27.616 2.661 34.444 9.529 35.135 18.991C36.656 39.861 24.253 53.411 20.506 56.999L20.509 57Z" fill="#F2CB05"/>
<path d="M85.078 18.8C84.278 7.908 76.335 0 66.178 0C61.2749 0.0218071 56.5721 1.94824 53.0627 5.37252C49.5534 8.7968 47.5121 13.4509 47.37 18.352C47.2279 23.2531 48.996 28.0177 52.3011 31.6395C55.6061 35.2614 60.1894 37.4571 65.083 37.763C65.255 39.615 65.125 44.656 60.29 51.676C60.1125 51.9326 60.0308 52.2434 60.0591 52.5541C60.0874 52.8648 60.224 53.1557 60.445 53.376C62.415 55.346 63.634 56.589 64.49 57.459C65.615 58.606 66.128 59.128 66.88 59.81C67.1215 60.0288 67.4349 60.1514 67.7608 60.1545C68.0866 60.1576 68.4023 60.0411 68.648 59.827C77.075 52.494 86.431 37.353 85.078 18.8ZM67.792 57C67.427 56.64 67.009 56.216 66.392 55.589C65.651 54.835 64.638 53.802 63.102 52.263C68.967 43.224 67.861 36.788 67.377 35.863C67.2607 35.6448 67.0881 35.4617 66.877 35.3327C66.666 35.2038 66.4243 35.1338 66.177 35.13C61.8715 35.13 57.7423 33.4196 54.6978 30.3752C51.6534 27.3307 49.943 23.2015 49.943 18.896C49.943 14.5905 51.6534 10.4613 54.6978 7.41683C57.7423 4.37236 61.8715 2.662 66.177 2.662C74.895 2.662 81.725 9.53 82.417 18.993C83.943 39.858 71.54 53.411 67.793 56.999L67.792 57Z" fill="#F2CB05"/>
</g>
<defs>
<clipPath id="clip0_55_674">
<rect width="85.21" height="60.15" fill="white"/>
</clipPath>
</defs>
</svg>
