<svg width="54" height="46" viewBox="0 0 54 46" fill="none" xmlns="http://www.w3.org/2000/svg">
<path d="M40.576 0.00144188C43.8634 0.00567548 47.0149 1.31346 49.3394 3.63799C51.664 5.96253 52.9717 9.11406 52.976 12.4014V12.4634C52.976 12.5044 52.981 12.5634 52.986 12.6464C53.241 17.1464 52.504 29.3114 40.2 44.8944C40.0888 45.0336 39.9322 45.1293 39.7576 45.1645C39.583 45.1997 39.4015 45.1724 39.2451 45.0872C39.0886 45.002 38.9672 44.8644 38.9021 44.6986C38.837 44.5328 38.8323 44.3493 38.889 44.1804C38.924 44.0804 42.289 34.0044 39.989 24.7884C36.7216 24.6812 33.6288 23.288 31.3834 20.9119C29.1381 18.5359 27.9218 15.3693 27.9993 12.1011C28.0769 8.8329 29.4418 5.72753 31.7973 3.46062C34.1528 1.19371 37.3082 -0.0513098 40.577 -0.00355824L40.576 0.00144188ZM51.463 12.3614C51.4547 10.2098 50.8091 8.10887 49.6076 6.32388C48.4062 4.53889 46.7029 3.14989 44.7126 2.33224C42.7224 1.51459 40.5345 1.30495 38.4252 1.7298C36.3159 2.15464 34.3798 3.19492 32.8613 4.7193C31.3428 6.24367 30.3099 8.18379 29.8932 10.2947C29.4765 12.4056 29.6946 14.5927 30.5199 16.5797C31.3452 18.5668 32.7407 20.2648 34.5303 21.4594C36.3199 22.6539 38.4233 23.2914 40.575 23.2914C40.7409 23.2915 40.9022 23.346 41.0341 23.4466C41.166 23.5473 41.2611 23.6884 41.305 23.8484C43.047 30.1894 42.193 36.8404 41.327 40.8764C51.087 27.2044 51.7 16.7694 51.472 12.7354C51.4617 12.6114 51.4587 12.4858 51.463 12.3614Z" fill="#05AFF2"/>
<path d="M12.408 0.00172549C15.6959 0.00596069 18.8478 1.31416 21.1725 3.63934C23.4971 5.96452 24.8045 9.11682 24.808 12.4047V12.4667C24.808 12.5077 24.813 12.5667 24.818 12.6497C25.073 17.1497 24.336 29.3147 12.032 44.8977C11.9208 45.0369 11.7642 45.1325 11.5896 45.1678C11.415 45.203 11.2335 45.1756 11.0771 45.0904C10.9206 45.0052 10.7992 44.8677 10.7341 44.7019C10.669 44.5361 10.6643 44.3526 10.721 44.1837C10.756 44.0837 14.121 34.0077 11.821 24.7917C8.56208 24.6726 5.4813 23.2745 3.24583 20.9002C1.01037 18.5259 -0.199814 15.3666 -0.12262 12.1065C-0.0454265 8.84633 1.31293 5.74782 3.65826 3.48201C6.00359 1.21619 9.14709 -0.033529 12.408 0.00172549ZM23.296 12.3617C23.2877 10.2101 22.642 8.10915 21.4406 6.32416C20.2392 4.53917 18.5358 3.15017 16.5456 2.33252C14.5554 1.51487 12.3675 1.30523 10.2582 1.73008C8.1489 2.15493 6.21277 3.19521 4.69426 4.71958C3.17574 6.24395 2.14292 8.18407 1.7262 10.295C1.30948 12.4059 1.52753 14.5929 2.35284 16.58C3.17815 18.5671 4.5737 20.2651 6.3633 21.4596C8.1529 22.6542 10.2563 23.2917 12.408 23.2917C12.5739 23.2917 12.7352 23.3463 12.8671 23.4469C12.9989 23.5475 13.0941 23.6887 13.138 23.8487C14.88 30.1897 14.026 36.8407 13.16 40.8767C22.919 27.2047 23.532 16.7687 23.308 12.7347C23.2974 12.6107 23.2941 12.4861 23.298 12.3617H23.296Z" fill="#05AFF2"/>
</svg>
