<svg width="60" height="60" viewBox="0 0 60 60" fill="none" xmlns="http://www.w3.org/2000/svg">
<circle cx="30" cy="30" r="30" fill="#F2CB57"/>
<g clip-path="url(#clip0_83_9)">
<path d="M40.7504 14H20.5008C20.2052 13.9998 19.9125 14.0587 19.6394 14.1735C19.3663 14.2882 19.1181 14.4565 18.9091 14.6688C18.7 14.881 18.5342 15.133 18.421 15.4104C18.3078 15.6877 18.2496 15.985 18.2496 16.2853V20.8574H16V23.1426H18.2496V28.8566H16V31.1418H18.2496V36.8526H16V39.1379H18.2496V43.71C18.2496 44.3161 18.4866 44.8973 18.9085 45.3259C19.3304 45.7545 19.9026 45.9952 20.4992 45.9952H40.7504C41.347 45.9952 41.9192 45.7545 42.3411 45.3259C42.763 44.8973 43 44.3161 43 43.71V16.2853C43 15.6792 42.763 15.0979 42.3411 14.6693C41.9192 14.2408 41.347 14 40.7504 14ZM40.7504 43.7132H20.5008V39.1426H22.7504V36.8526H20.5008V31.1418H22.7504V28.8566H20.5008V23.1426H22.7504V20.8574H20.5008V16.2853H40.7504V43.7132Z" fill="white"/>
<path d="M27.2495 20.8574H36.2495V23.1427H27.2495V20.8574Z" fill="white"/>
<path d="M27.2495 28.8564H36.2495V31.1417H27.2495V28.8564Z" fill="white"/>
<path d="M27.2495 36.8574H36.2495V39.1427H27.2495V36.8574Z" fill="white"/>
</g>
<defs>
<clipPath id="clip0_83_9">
<rect width="27" height="32" fill="white" transform="translate(16 14)"/>
</clipPath>
</defs>
</svg>
