<svg width="18" height="18" viewBox="0 0 18 18" fill="none" xmlns="http://www.w3.org/2000/svg">
<g clip-path="url(#clip0_60_717)">
<path d="M9 18C7.21997 18 5.47991 17.4722 3.99987 16.4832C2.51983 15.4943 1.36628 14.0887 0.685088 12.4442C0.00389951 10.7996 -0.17433 8.99002 0.172937 7.24419C0.520204 5.49836 1.37737 3.89472 2.63604 2.63604C3.89472 1.37737 5.49836 0.520204 7.24419 0.172937C8.99002 -0.17433 10.7996 0.00389951 12.4442 0.685088C14.0887 1.36628 15.4943 2.51983 16.4832 3.99987C17.4722 5.47991 18 7.21997 18 9C18 11.387 17.0518 13.6761 15.364 15.364C13.6761 17.0518 11.387 18 9 18ZM9 1.286C7.47432 1.286 5.9829 1.73842 4.71434 2.58605C3.44577 3.43367 2.45705 4.63844 1.8732 6.04798C1.28934 7.45753 1.13658 9.00856 1.43423 10.5049C1.73187 12.0013 2.46656 13.3758 3.54538 14.4546C4.6242 15.5334 5.99871 16.2681 7.49508 16.5658C8.99145 16.8634 10.5425 16.7107 11.952 16.1268C13.3616 15.543 14.5663 14.5542 15.414 13.2857C16.2616 12.0171 16.714 10.5257 16.714 9C16.714 6.95412 15.9013 4.99204 14.4546 3.54538C13.008 2.09873 11.0459 1.286 9 1.286Z" fill="#0D7AD9" fill-opacity="0.945098"/>
<path d="M11.9511 12.8569L8.35706 9.26287V3.21387H9.64305V8.72887L12.8571 11.9499L11.9511 12.8569Z" fill="#0D7AD9" fill-opacity="0.945098"/>
</g>
<defs>
<clipPath id="clip0_60_717">
<rect width="18" height="18" fill="white"/>
</clipPath>
</defs>
</svg>
