<svg width="123" height="32" viewBox="0 0 123 32" fill="none" xmlns="http://www.w3.org/2000/svg">
<g clip-path="url(#clip0_54_625)">
<mask id="mask0_54_625" style="mask-type:luminance" maskUnits="userSpaceOnUse" x="0" y="0" width="123" height="32">
<path d="M123 0H0V32H123V0Z" fill="white"/>
</mask>
<g mask="url(#mask0_54_625)">
<g opacity="0.2">
<path d="M4.5 7C5.88071 7 7 5.88071 7 4.5C7 3.11929 5.88071 2 4.5 2C3.11929 2 2 3.11929 2 4.5C2 5.88071 3.11929 7 4.5 7Z" fill="#5386C5"/>
<path d="M26.5 7C27.8807 7 29 5.88071 29 4.5C29 3.11929 27.8807 2 26.5 2C25.1193 2 24 3.11929 24 4.5C24 5.88071 25.1193 7 26.5 7Z" fill="#5386C5"/>
<path d="M48.5 7C49.8807 7 51 5.88071 51 4.5C51 3.11929 49.8807 2 48.5 2C47.1193 2 46 3.11929 46 4.5C46 5.88071 47.1193 7 48.5 7Z" fill="#5386C5"/>
<path d="M70.5 7C71.8807 7 73 5.88071 73 4.5C73 3.11929 71.8807 2 70.5 2C69.1193 2 68 3.11929 68 4.5C68 5.88071 69.1193 7 70.5 7Z" fill="#5386C5"/>
<path d="M92.5 7C93.8807 7 95 5.88071 95 4.5C95 3.11929 93.8807 2 92.5 2C91.1193 2 90 3.11929 90 4.5C90 5.88071 91.1193 7 92.5 7Z" fill="#5386C5"/>
<path d="M114.5 7C115.881 7 117 5.88071 117 4.5C117 3.11929 115.881 2 114.5 2C113.119 2 112 3.11929 112 4.5C112 5.88071 113.119 7 114.5 7Z" fill="#5386C5"/>
<path d="M4.5 29C5.88071 29 7 27.8807 7 26.5C7 25.1193 5.88071 24 4.5 24C3.11929 24 2 25.1193 2 26.5C2 27.8807 3.11929 29 4.5 29Z" fill="#5386C5"/>
<path d="M26.5 29C27.8807 29 29 27.8807 29 26.5C29 25.1193 27.8807 24 26.5 24C25.1193 24 24 25.1193 24 26.5C24 27.8807 25.1193 29 26.5 29Z" fill="#5386C5"/>
<path d="M48.5 29C49.8807 29 51 27.8807 51 26.5C51 25.1193 49.8807 24 48.5 24C47.1193 24 46 25.1193 46 26.5C46 27.8807 47.1193 29 48.5 29Z" fill="#5386C5"/>
<path d="M70.5 29C71.8807 29 73 27.8807 73 26.5C73 25.1193 71.8807 24 70.5 24C69.1193 24 68 25.1193 68 26.5C68 27.8807 69.1193 29 70.5 29Z" fill="#5386C5"/>
<path d="M92.5 29C93.8807 29 95 27.8807 95 26.5C95 25.1193 93.8807 24 92.5 24C91.1193 24 90 25.1193 90 26.5C90 27.8807 91.1193 29 92.5 29Z" fill="#5386C5"/>
<path d="M114.5 29C115.881 29 117 27.8807 117 26.5C117 25.1193 115.881 24 114.5 24C113.119 24 112 25.1193 112 26.5C112 27.8807 113.119 29 114.5 29Z" fill="#5386C5"/>
</g>
</g>
</g>
<defs>
<clipPath id="clip0_54_625">
<rect width="123" height="32" fill="white"/>
</clipPath>
</defs>
</svg>
