<svg width="153" height="34" viewBox="0 0 153 34" fill="none" xmlns="http://www.w3.org/2000/svg">
<path d="M13.1975 33.675C10.7375 33.675 8.5775 33.1425 6.7175 32.0775C4.8575 31.0125 3.4025 29.535 2.3525 27.645C1.3175 25.755 0.8 23.58 0.8 21.12C0.8 18.465 1.31 16.1625 2.33 14.2125C3.35 12.2475 4.7675 10.725 6.5825 9.645C8.3975 8.565 10.4975 8.025 12.8825 8.025C15.4025 8.025 17.54 8.6175 19.295 9.8025C21.065 10.9725 22.3775 12.63 23.2325 14.775C24.0875 16.92 24.41 19.4475 24.2 22.3575H18.8225V20.3775C18.8075 17.7375 18.3425 15.81 17.4275 14.595C16.5125 13.38 15.0725 12.7725 13.1075 12.7725C10.8875 12.7725 9.2375 13.4625 8.1575 14.8425C7.0775 16.2075 6.5375 18.21 6.5375 20.85C6.5375 23.31 7.0775 25.215 8.1575 26.565C9.2375 27.915 10.8125 28.59 12.8825 28.59C14.2175 28.59 15.365 28.2975 16.325 27.7125C17.3 27.1125 18.05 26.25 18.575 25.125L23.93 26.745C23 28.935 21.56 30.6375 19.61 31.8525C17.675 33.0675 15.5375 33.675 13.1975 33.675ZM4.8275 22.3575V18.2625H21.545V22.3575H4.8275ZM38.9628 33.675C36.7278 33.675 34.7778 33.1125 33.1128 31.9875C31.4478 30.8625 30.1578 29.3325 29.2428 27.3975C28.3278 25.4625 27.8703 23.28 27.8703 20.85C27.8703 18.39 28.3278 16.2 29.2428 14.28C30.1728 12.345 31.4853 10.8225 33.1803 9.7125C34.8753 8.5875 36.8703 8.025 39.1653 8.025C41.4753 8.025 43.4103 8.5875 44.9703 9.7125C46.5453 10.8225 47.7378 12.345 48.5478 14.28C49.3578 16.215 49.7628 18.405 49.7628 20.85C49.7628 23.265 49.3578 25.4475 48.5478 27.3975C47.7378 29.3325 46.5303 30.8625 44.9253 31.9875C43.3203 33.1125 41.3328 33.675 38.9628 33.675ZM39.7953 28.815C41.2503 28.815 42.4203 28.485 43.3053 27.825C44.2053 27.15 44.8578 26.2125 45.2628 25.0125C45.6828 23.8125 45.8928 22.425 45.8928 20.85C45.8928 19.26 45.6828 17.8725 45.2628 16.6875C44.8578 15.4875 44.2203 14.5575 43.3503 13.8975C42.4803 13.2225 41.3553 12.885 39.9753 12.885C38.5203 12.885 37.3203 13.245 36.3753 13.965C35.4303 14.67 34.7328 15.63 34.2828 16.845C33.8328 18.045 33.6078 19.38 33.6078 20.85C33.6078 22.335 33.8253 23.685 34.2603 24.9C34.7103 26.1 35.3928 27.0525 36.3078 27.7575C37.2228 28.4625 38.3853 28.815 39.7953 28.815ZM45.8928 33V15.945H45.2178V0.599999H50.6853V33H45.8928ZM68.0413 33.675C65.5813 33.675 63.4213 33.1425 61.5613 32.0775C59.7013 31.0125 58.2463 29.535 57.1963 27.645C56.1613 25.755 55.6438 23.58 55.6438 21.12C55.6438 18.465 56.1538 16.1625 57.1738 14.2125C58.1938 12.2475 59.6113 10.725 61.4263 9.645C63.2413 8.565 65.3413 8.025 67.7263 8.025C70.2463 8.025 72.3838 8.6175 74.1388 9.8025C75.9088 10.9725 77.2213 12.63 78.0763 14.775C78.9313 16.92 79.2538 19.4475 79.0438 22.3575H73.6663V20.3775C73.6513 17.7375 73.1863 15.81 72.2713 14.595C71.3563 13.38 69.9163 12.7725 67.9513 12.7725C65.7313 12.7725 64.0813 13.4625 63.0013 14.8425C61.9213 16.2075 61.3813 18.21 61.3813 20.85C61.3813 23.31 61.9213 25.215 63.0013 26.565C64.0813 27.915 65.6563 28.59 67.7263 28.59C69.0613 28.59 70.2088 28.2975 71.1688 27.7125C72.1438 27.1125 72.8938 26.25 73.4188 25.125L78.7738 26.745C77.8438 28.935 76.4038 30.6375 74.4538 31.8525C72.5188 33.0675 70.3813 33.675 68.0413 33.675ZM59.6713 22.3575V18.2625H76.3888V22.3575H59.6713ZM100.212 33V21.3C100.212 20.535 100.16 19.6875 100.055 18.7575C99.9499 17.8275 99.7024 16.935 99.3124 16.08C98.9374 15.21 98.3674 14.4975 97.6024 13.9425C96.8524 13.3875 95.8324 13.11 94.5424 13.11C93.8524 13.11 93.1699 13.2225 92.4949 13.4475C91.8199 13.6725 91.2049 14.0625 90.6499 14.6175C90.1099 15.1575 89.6749 15.9075 89.3449 16.8675C89.0149 17.8125 88.8499 19.0275 88.8499 20.5125L85.6324 19.14C85.6324 17.07 86.0299 15.195 86.8249 13.515C87.6349 11.835 88.8199 10.5 90.3799 9.51C91.9399 8.505 93.8599 8.0025 96.1399 8.0025C97.9399 8.0025 99.4249 8.3025 100.595 8.9025C101.765 9.5025 102.695 10.2675 103.385 11.1975C104.075 12.1275 104.585 13.1175 104.915 14.1675C105.245 15.2175 105.455 16.215 105.545 17.16C105.65 18.09 105.702 18.8475 105.702 19.4325V33H100.212ZM83.3599 33V8.7H88.1974V16.2375H88.8499V33H83.3599ZM125.816 33C124.211 33.3 122.636 33.4275 121.091 33.3825C119.561 33.3525 118.189 33.075 116.974 32.55C115.759 32.01 114.836 31.1625 114.206 30.0075C113.651 28.9575 113.359 27.885 113.329 26.79C113.299 25.695 113.284 24.4575 113.284 23.0775V1.95H118.684V22.7625C118.684 23.7375 118.691 24.5925 118.706 25.3275C118.736 26.0625 118.894 26.6625 119.179 27.1275C119.719 28.0275 120.581 28.53 121.766 28.635C122.951 28.74 124.301 28.68 125.816 28.455V33ZM108.874 12.9525V8.7H125.816V12.9525H108.874ZM140.154 33.6975C138.354 33.6975 136.869 33.3975 135.699 32.7975C134.529 32.1975 133.599 31.4325 132.909 30.5025C132.219 29.5725 131.709 28.5825 131.379 27.5325C131.049 26.4825 130.832 25.4925 130.727 24.5625C130.637 23.6175 130.592 22.8525 130.592 22.2675V8.7H136.082V20.4C136.082 21.15 136.134 21.9975 136.239 22.9425C136.344 23.8725 136.584 24.7725 136.959 25.6425C137.349 26.4975 137.919 27.2025 138.669 27.7575C139.434 28.3125 140.462 28.59 141.752 28.59C142.442 28.59 143.124 28.4775 143.799 28.2525C144.474 28.0275 145.082 27.645 145.622 27.105C146.177 26.55 146.619 25.7925 146.949 24.8325C147.279 23.8725 147.444 22.6575 147.444 21.1875L150.662 22.56C150.662 24.63 150.257 26.505 149.447 28.185C148.652 29.865 147.474 31.2075 145.914 32.2125C144.354 33.2025 142.434 33.6975 140.154 33.6975ZM148.097 33V25.4625H147.444V8.7H152.889V33H148.097Z" fill="#5386C5"/>
</svg>
